<?xml version="1.0" encoding="utf-8"?>
<!-- Generator: Adobe Illustrator 26.1.0, SVG Export Plug-In . SVG Version: 6.00 Build 0)  -->
<svg version="1.1" id="Capa_1" xmlns="http://www.w3.org/2000/svg" xmlns:xlink="http://www.w3.org/1999/xlink" x="0px" y="0px"
	 viewBox="0 0 816 750" style="enable-background:new 0 0 816 750;" xml:space="preserve">
<style type="text/css">
	.st0{fill:#D7ADE1;}
	.st1{fill:#B9DFEA;}
	.st2{fill:#17282F;}
	.st3{fill:#33535F;}
	.st4{fill:#FFFFFF;}
	.st5{fill:#D9E1DF;}
	.st6{fill:#9BA6A6;}
	.st7{fill:#FAFAF9;}
	.st8{fill:#51B0CB;}
	.st9{fill:#DADBD8;}
	.st10{fill:#8F9192;}
	.st11{fill:#E7E8E5;}
	.st12{fill:#1A8A9E;}
	.st13{fill:#DDBAE6;}
	.st14{fill:#F3F2F1;}
	.st15{fill:#BD77CE;}
	.st16{fill:#20353D;}
	.st17{fill:#9B51E0;}
	.st18{fill:#B96357;}
	.st19{fill:#6F3430;}
	.st20{fill:#F9A78D;}
	.st21{fill:#F57F62;}
	.st22{fill:#A6B7B9;}
	.st23{fill:#D09FDC;}
	.st24{fill:#263238;}
	.st25{fill:#455A64;}
	.st26{fill:#FAFAFA;}
</style>
<ellipse class="st0" cx="208.5" cy="39" rx="160.5" ry="161"/>
<path class="st1" d="M332.8,665.1c139.2,116.8,310.6,104.4,512.3-0.2c202.2-105.7,433.7-304,424.6-453.4
	C1259.7,61.7,1008-39.6,754-56.7c-254.9-17.6-512.2,49-588,204.2C89.5,303.8,194.6,548.8,332.8,665.1z"/>
<path class="st2" d="M783.1,661.5c0,0,0.9,0,2.7-0.1c1.8,0,4.5,0,8.2-0.1v0.2c-40.4,0-200.8,0.2-392.5,0.4
	c-111.4-0.1-212.3-0.1-285.3-0.1c-36.5-0.1-66-0.1-86.5-0.2c-10.2,0-18.1-0.1-23.5-0.1c-2.7,0-4.7,0-6.1,0c-1.4,0-2.1,0-2.1,0
	s0.7,0,2.1-0.1c1.4,0,3.4,0,6.1,0c5.4,0,13.3-0.1,23.5-0.1c20.4,0,50-0.1,86.5-0.2c73,0,173.9-0.1,285.3-0.1
	c191.7,0.2,352.1,0.3,392.5,0.4v0.2c-3.7,0-6.4,0-8.2-0.1C784,661.5,783.1,661.5,783.1,661.5z"/>
<path class="st2" d="M496.6,657c0,0.2-21.2,0.3-47.3,0.3c-26.1,0-47.3-0.1-47.3-0.3c0-0.2,21.2-0.3,47.3-0.3
	C475.4,656.8,496.6,656.9,496.6,657z"/>
<path class="st3" d="M597.2,665l0-4.3l-51.2-0.5c0,0-2.4,0.9-2.2,2.6L597.2,665z"/>
<path class="st3" d="M722.9,677.5l-34.4-18.2l0.5,1.3c0.4,1.2,1.2,2.1,2.2,2.7c2.8,1.7,10.7,6,28.4,14.3
	C720.8,678.1,722,678.1,722.9,677.5z"/>
<path class="st4" d="M711,666.2c0.2,0,0.3-1.9,1.9-3.4c1.5-1.6,3.4-1.7,3.4-2c0-0.1-0.5-0.2-1.3,0c-0.8,0.1-1.8,0.6-2.6,1.5
	c-0.8,0.9-1.3,1.9-1.4,2.7C710.8,665.8,710.9,666.2,711,666.2z"/>
<path class="st4" d="M714.7,669.7c0.2,0.1,0.9-1.3,2.3-2.3c1.4-1.1,3-1.3,2.9-1.5c0-0.2-1.7-0.3-3.4,0.9
	C714.9,667.9,714.5,669.6,714.7,669.7z"/>
<path class="st4" d="M704.9,662.3c0.2,0.1,1.2-2,3.3-3.8c2.1-1.8,4.4-2.5,4.3-2.7c0-0.2-2.5,0.2-4.8,2.2
	C705.5,659.9,704.7,662.3,704.9,662.3z"/>
<path class="st4" d="M137.3,660.6h59.2v-0.5h-59.2V660.6z"/>
<path class="st4" d="M203.5,660.9l-7.3-1.8L203.5,660.9c0.2-0.8-0.3-1.9-1.1-3.1C202.9,658.3,204,659.6,203.5,660.9z"/>
<path class="st5" d="M195.6,658.9l-6.2-1.5h0L195.6,658.9z"/>
<path class="st6" d="M196.1,659l-0.6-0.1L196.1,659z"/>
<path class="st7" d="M245,146.5h-67.6c-3.3,0-5.9-2.7-5.7-6l1.4-28.7c0.1-3.1,2.7-5.5,5.7-5.5h67.6c3.3,0,5.9,2.7,5.7,6l-1.4,28.7
	C250.6,144.1,248.1,146.5,245,146.5z"/>
<path class="st2" d="M245,146.5c0-0.1,0.8,0.1,2.2-0.5c0.7-0.3,1.5-0.8,2.2-1.7c0.7-0.8,1.2-2.1,1.2-3.5c0.3-5.8,0.6-14.2,1.1-24.5
	c0-2.5,0.8-5.5-1.1-7.6c-0.8-1-2.1-1.8-3.5-2c-1.4-0.1-2.9,0-4.4,0c-6.1,0-12.6,0-19.4,0c-13.7,0-28.7,0-44.5,0
	c-1.9,0-3.7,1-4.6,2.6c-0.5,0.8-0.7,1.7-0.8,2.6c0,1-0.1,1.9-0.1,2.9c-0.2,3.8-0.4,7.6-0.5,11.3c-0.2,3.7-0.4,7.4-0.5,10.9
	c0,0.9-0.1,1.8-0.1,2.7c-0.1,0.9-0.1,1.7,0.2,2.5c0.5,1.6,1.7,2.9,3.2,3.5c0.8,0.3,1.5,0.4,2.4,0.4c0.8,0,1.7,0,2.5,0
	c1.7,0,3.3,0,4.9,0c3.2,0,6.4,0,9.4,0c6.1,0,11.7,0,16.9,0c10.3,0,18.7,0.1,24.5,0.1c2.9,0,5.1,0,6.7,0.1c0.7,0,1.3,0,1.7,0
	C244.8,146.4,245,146.5,245,146.5c0,0-0.2,0-0.6,0c-0.4,0-1,0-1.7,0c-1.6,0-3.8,0-6.7,0.1c-5.8,0-14.2,0.1-24.5,0.1
	c-5.2,0-10.8,0-16.9,0c-3,0-6.2,0-9.4,0c-1.6,0-3.3,0-4.9,0c-0.8,0-1.7,0-2.5,0c-0.8,0-1.8-0.1-2.6-0.4c-1.7-0.7-3-2.1-3.6-3.9
	c-0.3-0.9-0.3-1.9-0.2-2.7c0-0.9,0.1-1.8,0.1-2.7c0.2-3.6,0.3-7.2,0.5-10.9c0.2-3.7,0.4-7.5,0.5-11.3c0-1,0.1-1.9,0.1-2.9
	c0-1,0.3-2,0.9-2.9c1.1-1.8,3.1-2.9,5.2-2.9c15.8,0,30.8,0,44.5,0c6.8,0,13.3,0,19.4,0c1.5,0,3-0.1,4.5,0.1c1.5,0.2,2.9,1,3.9,2.2
	c0.9,1.1,1.4,2.6,1.3,4c-0.1,1.4-0.1,2.7-0.2,4c-0.5,10.3-1,18.7-1.3,24.5c0,1.5-0.6,2.8-1.3,3.6c-0.7,0.9-1.6,1.4-2.3,1.7
	c-0.7,0.3-1.3,0.4-1.7,0.4C245.2,146.5,245,146.5,245,146.5z"/>
<path class="st8" d="M455.4,146.7l2.9-18.1l12.3-7.2l10.1,10.9l-3.1,18.6L455.4,146.7z"/>
<path class="st9" d="M512.4,165.8l-15,328.6l-241.4-6.9l-14.4-25.1l26-305.4l224.7-14.9L512.4,165.8z"/>
<path class="st10" d="M497.5,494.4l-20.1-23.6l15-328.6l20.1,23.6L497.5,494.4z"/>
<path class="st7" d="M492.3,142.2l-15,328.6l-235.7-8.3l17.8-323.5L492.3,142.2z"/>
<path class="st2" d="M492.3,142.2c-2.3,0-91.5-1.2-232.8-3l0.3-0.3c-5,90.4-11.1,202.4-17.8,323.6l-0.3-0.4c1.2,0,2.6,0.1,3.9,0.1
	c82.9,2.9,161.6,5.7,231.8,8.2l-0.3,0.3C486.1,276.7,492.2,145,492.3,142.2c-0.1,2.8-6,134.5-14.7,328.6l0,0.3l-0.3,0
	c-70.1-2.5-148.8-5.2-231.8-8.2c-1.3,0-2.7-0.1-3.9-0.1l-0.4,0l0-0.4c6.7-121.1,12.9-233.1,17.9-323.5l0-0.3l0.3,0
	C400.8,140.8,490,142.2,492.3,142.2z"/>
<path class="st9" d="M286.7,218.1l82.3,2.4c1.7,0.1,3.2-1.3,3.2-3l0.1-3.1c0-1.7-1.3-3.2-3-3.2l-82.3-2.4c-1.7-0.1-3.2,1.3-3.2,3
	l-0.1,3.1C283.6,216.6,284.9,218.1,286.7,218.1z"/>
<path class="st9" d="M285.9,236.2l82.3,2.4c1.7,0.1,3.2-1.3,3.2-3l0.1-3.1c0.1-1.7-1.3-3.2-3-3.2l-82.3-2.4c-1.7-0.1-3.2,1.3-3.2,3
	l-0.1,3.1C282.8,234.7,284.1,236.1,285.9,236.2z"/>
<path class="st9" d="M285.1,254.2l82.3,2.4c1.7,0.1,3.2-1.3,3.2-3l0.1-3.1c0.1-1.7-1.3-3.2-3-3.2l-82.3-2.4c-1.7-0.1-3.2,1.3-3.2,3
	L282,251C282,252.7,283.3,254.2,285.1,254.2z"/>
<path class="st9" d="M284.3,272.3l82.3,2.4c1.7,0,3.2-1.3,3.2-3l0.1-3.1c0.1-1.7-1.3-3.2-3-3.2l-82.3-2.4c-1.7-0.1-3.2,1.3-3.2,3
	l-0.1,3.1C281.2,270.8,282.6,272.2,284.3,272.3z"/>
<path class="st9" d="M283.5,290.4l82.3,2.4c1.7,0.1,3.2-1.3,3.2-3l0.1-3.1c0.1-1.7-1.3-3.2-3-3.2l-82.3-2.4c-1.7-0.1-3.2,1.3-3.2,3
	l-0.1,3.1C280.4,288.9,281.8,290.3,283.5,290.4z"/>
<path class="st9" d="M282.7,308.4l82.3,2.4c1.7,0.1,3.2-1.3,3.2-3l0.1-3.1c0.1-1.7-1.3-3.2-3-3.2l-82.3-2.4c-1.7-0.1-3.2,1.3-3.2,3
	l-0.1,3.1C279.6,306.9,281,308.4,282.7,308.4z"/>
<path class="st9" d="M281.9,326.5l82.3,2.4c1.7,0.1,3.2-1.3,3.2-3l0.1-3.1c0.1-1.7-1.3-3.2-3-3.2l-82.3-2.4c-1.7,0-3.2,1.3-3.2,3
	l-0.1,3.1C278.8,325,280.2,326.4,281.9,326.5z"/>
<path class="st9" d="M380.3,311.1l82.3,2.4c1.7,0,3.2-1.3,3.2-3l0.1-3.1c0.1-1.7-1.3-3.2-3-3.2l-82.3-2.4c-1.7-0.1-3.2,1.3-3.2,3
	l-0.1,3.1C377.2,309.6,378.6,311.1,380.3,311.1z"/>
<path class="st9" d="M379.5,329.2l82.3,2.4c1.7,0.1,3.2-1.3,3.2-3l0.1-3.1c0.1-1.7-1.3-3.2-3-3.2l-82.3-2.4c-1.7-0.1-3.2,1.3-3.2,3
	l-0.1,3.1C376.4,327.7,377.8,329.1,379.5,329.2z"/>
<path class="st9" d="M378.5,348.2l82.3,2.4c1.7,0.1,3.2-1.3,3.2-3l0.1-3.1c0.1-1.7-1.3-3.2-3-3.2l-82.3-2.4c-1.7-0.1-3.2,1.3-3.2,3
	l-0.1,3.1C375.5,346.7,376.8,348.2,378.5,348.2z"/>
<path class="st9" d="M377.6,367.3l82.3,2.4c1.7,0.1,3.2-1.3,3.2-3l0.1-3.1c0.1-1.7-1.3-3.2-3-3.2l-82.3-2.4c-1.7,0-3.2,1.3-3.2,3
	l-0.1,3.1C374.5,365.8,375.9,367.2,377.6,367.3z"/>
<path class="st9" d="M376.6,386.3l82.3,2.4c1.7,0.1,3.2-1.3,3.2-3l0.1-3.1c0.1-1.7-1.3-3.2-3-3.2l-82.3-2.4c-1.7-0.1-3.2,1.3-3.2,3
	l-0.1,3.1C373.5,384.8,374.9,386.3,376.6,386.3z"/>
<path class="st9" d="M375.7,405.4l82.3,2.4c1.7,0.1,3.2-1.3,3.2-3l0.1-3.1c0.1-1.7-1.3-3.2-3-3.2l-82.3-2.4c-1.7-0.1-3.2,1.3-3.2,3
	l-0.1,3.1C372.6,403.9,373.9,405.3,375.7,405.4z"/>
<path class="st9" d="M374.7,424.4l82.3,2.4c1.7,0.1,3.2-1.3,3.2-3l0.1-3.1c0-1.7-1.3-3.2-3-3.2l-82.3-2.4c-1.7-0.1-3.2,1.3-3.2,3
	l-0.1,3.1C371.6,422.9,373,424.4,374.7,424.4z"/>
<path class="st9" d="M273.8,438.6l181.6,5.3c1.7,0.1,3.2-1.3,3.2-3l0.1-3.1c0.1-1.7-1.3-3.2-3-3.2l-181.6-5.3
	c-1.7-0.1-3.2,1.3-3.2,3l-0.1,3.1C270.7,437.1,272.1,438.6,273.8,438.6z"/>
<path class="st9" d="M288.1,194.6l55.5,1.6c1.7,0.1,3.2-1.3,3.2-3l0.1-3.1c0.1-1.7-1.3-3.2-3-3.2l-55.5-1.6c-1.7,0-3.2,1.3-3.2,3
	l-0.1,3.1C285,193.1,286.4,194.5,288.1,194.6z"/>
<path class="st2" d="M254.7,469.8c0,0,0.4,0,1.1,0.1c0.8,0,1.9,0.1,3.4,0.1c3,0.1,7.4,0.3,13,0.5c11.4,0.4,27.9,1,48.4,1.7
	c41.1,1.4,98.5,3.3,163.5,5.5l0.3,0l0-0.4c0.6-13,1.3-26.6,1.9-40.5c3.5-74.5,6.6-142,8.9-190.8c1.1-24.4,2-44.2,2.6-57.8
	c0.3-6.8,0.5-12.1,0.7-15.7c0.1-1.8,0.1-3.2,0.2-4.1c0-0.9,0-1.4,0-1.4s0,0.5-0.1,1.4c-0.1,0.9-0.1,2.3-0.2,4.1
	c-0.2,3.6-0.5,8.9-0.8,15.7c-0.7,13.7-1.6,33.4-2.9,57.8c-2.3,48.8-5.6,116.3-9.1,190.8c-0.7,13.9-1.3,27.5-1.9,40.5l0.4-0.3
	c-65-2.1-122.4-4-163.5-5.3c-20.5-0.6-37-1.1-48.4-1.5c-5.7-0.2-10.1-0.3-13-0.4c-1.5,0-2.6-0.1-3.4-0.1
	C255.1,469.8,254.7,469.8,254.7,469.8z"/>
<path class="st2" d="M273.9,479.7c0,0,0.4,0,1.1,0.1c0.7,0,1.8,0.1,3.2,0.1c2.8,0.1,7,0.3,12.3,0.5c10.7,0.4,26.3,1,45.8,1.8
	c39,1.4,93.4,3.4,155.3,5.7l0.3,0l0-0.3c0.8-15.7,1.7-32,2.6-48.6c3.8-73.5,7.3-140.1,9.8-188.3c1.2-24.1,2.2-43.6,2.9-57.1
	c0.3-6.7,0.6-12,0.8-15.5c0.1-1.8,0.1-3.1,0.2-4c0-0.9,0-1.4,0-1.4s-0.1,0.5-0.1,1.4c-0.1,0.9-0.1,2.3-0.2,4
	c-0.2,3.6-0.5,8.8-0.9,15.5c-0.7,13.5-1.8,33-3.1,57c-2.6,48.2-6.1,114.7-10,188.3c-0.9,16.7-1.7,33-2.6,48.6l0.4-0.3
	c-62-2.2-116.4-4.1-155.4-5.5c-19.5-0.7-35.1-1.2-45.8-1.5c-5.4-0.2-9.5-0.3-12.3-0.4c-1.4,0-2.5-0.1-3.2-0.1
	C274.2,479.7,273.9,479.7,273.9,479.7z"/>
<path class="st2" d="M351.9,138l3.6-3.5l42.4,0.2l2.1,3.9L351.9,138z"/>
<path class="st2" d="M399.7,158.8l0.3-20.2l-48.1-0.6l-0.3,20.2L399.7,158.8z"/>
<path class="st2" d="M401.3,159.5l0-0.7c0-0.9-0.7-1.7-1.6-1.7l-48.1-0.6c-0.9,0-1.7,0.7-1.7,1.6l0,0.7c0,0.9,0.7,1.7,1.6,1.7
	l48,0.6C400.6,161.2,401.3,160.4,401.3,159.5z"/>
<path class="st3" d="M376.3,115.7l-0.3,0c-5.2,0.1-9.5,4.6-9.4,9.8c0,3.2,1.7,6.1,4.3,7.9l0.4,0.3l-6.6,17.7c-0.1,0.2,0,0.3,0.1,0.5
	c0.1,0.1,0.3,0.2,0.4,0.2l21.1,0.3c0.2,0,0.3-0.1,0.4-0.2c0.1-0.1,0.1-0.3,0.1-0.5l-5.9-17.8l0.4-0.3c2.8-1.8,4.5-4.8,4.6-8.1
	c0-2.7-1-5.2-2.9-7C381.2,116.6,378.8,115.7,376.3,115.7z M386.3,153.7L386.3,153.7l-21.2-0.3c-0.6,0-1.2-0.3-1.5-0.8
	c-0.3-0.5-0.4-1.1-0.2-1.7l6.2-16.7c-2.7-2-4.4-5.3-4.5-8.7c-0.1-6,4.7-11,10.7-11.2c3-0.1,5.9,1.1,8,3.2c2.2,2.1,3.3,5,3.3,8
	c0,3.6-1.8,6.9-4.8,8.9l5.6,16.9c0.2,0.6,0.1,1.2-0.3,1.7C387.5,153.5,386.9,153.7,386.3,153.7z"/>
<path class="st3" d="M399.4,157.1c0,0-0.2,0-0.5,0c-0.4,0-0.8,0-1.4,0c-1.2,0-3-0.1-5.1-0.1c-4.3-0.1-10.2-0.2-16.8-0.3
	c-6.5-0.1-12.4-0.1-16.8-0.2c-2.1,0-3.8,0-5.1,0c-0.6,0-1,0-1.4,0c-0.3,0-0.5,0-0.5,0c0,0,0.2,0,0.5,0c0.4,0,0.8,0,1.4,0.1
	c1.2,0,3,0.1,5.1,0.1c4.3,0.1,10.2,0.2,16.8,0.3c6.5,0.1,12.5,0.1,16.8,0.2c2.1,0,3.9,0,5.1,0c0.6,0,1.1,0,1.4,0
	C399.2,157.1,399.4,157.1,399.4,157.1z"/>
<path class="st3" d="M400.1,138.2c0,0-0.2,0-0.5,0c-0.4,0-0.8,0-1.4,0c-1.2,0-3-0.1-5.1-0.1c-4.3-0.1-10.2-0.2-16.8-0.3
	c-6.5-0.1-12.4-0.1-16.8-0.2c-2.1,0-3.8,0-5.1,0c-0.6,0-1,0-1.4,0c-0.3,0-0.5,0-0.5,0c0,0,0.2,0,0.5,0c0.4,0,0.8,0,1.4,0.1
	c1.2,0,3,0.1,5.1,0.1c4.3,0.1,10.2,0.2,16.8,0.3c6.5,0.1,12.5,0.1,16.8,0.2c2.1,0,3.9,0,5.1,0c0.6,0,1.1,0,1.4,0
	C399.9,138.2,400.1,138.2,400.1,138.2z"/>
<path class="st11" d="M346.9,416.4l-58.1-1.7c-6.6-0.2-11.7-5.7-11.5-12.2l1.5-50.7c0.2-6.6,5.7-11.7,12.2-11.5l58.1,1.7
	c6.6,0.2,11.7,5.7,11.5,12.2l-1.5,50.7C359,411.4,353.5,416.6,346.9,416.4z"/>
<path class="st9" d="M277.5,397c0-0.6,0.4-1.2,0.9-1.6l26.8-18c2.1-1.7,5.1-1.6,7.1,0.1c0.1,0.1,0.2,0.2,0.4,0.2l12.1,6.2
	c0.8,0.4,1.7,0.3,2.3-0.3l18.4-18c2.4-2.2,6.2-1.9,8.3,0.7l5.9,7.4c0.3,0.4,0.4,0.8,0.4,1.3l-0.3,29.9c-0.1,6.3-5.3,11.4-11.7,11.2
	l-59.9-1.9c-6.3-0.2-11.2-5.5-10.9-11.7L277.5,397z"/>
<path class="st9" d="M317,360.3c0.2,4.5-3.3,8.3-7.8,8.5c-4.5,0.2-8.3-3.3-8.5-7.8c-0.2-4.5,3.3-8.3,7.8-8.5
	C313,352.3,316.8,355.8,317,360.3z"/>
<path class="st11" d="M452.7,290.3l-58.1-1.7c-6.6-0.2-11.7-5.7-11.5-12.2l1.5-50.7c0.2-6.6,5.7-11.7,12.2-11.5l58.1,1.7
	c6.6,0.2,11.7,5.7,11.5,12.2l-1.5,50.7C464.7,285.3,459.2,290.5,452.7,290.3z"/>
<path class="st9" d="M383.3,269.9l27.6-18.5c2.1-1.7,5.2-1.6,7.2,0.3l13.6,7l19.4-19c2.4-2.2,6.2-1.9,8.3,0.7l6.3,8l-0.3,28.7
	c-0.1,7.4-6.2,13.4-13.7,13.1l-56-1.8c-7.3-0.2-13.1-6.4-12.8-13.7L383.3,269.9z"/>
<path class="st9" d="M422.8,234.2c0.2,4.5-3.3,8.3-7.8,8.6c-4.5,0.2-8.3-3.3-8.5-7.8c-0.2-4.5,3.3-8.3,7.8-8.5
	C418.8,226.2,422.6,229.6,422.8,234.2z"/>
<path class="st2" d="M289.9,257.6c0,0-0.4,0-1.1-0.3c-0.7-0.3-1.6-0.9-2.4-2.1c-0.8-1.1-1.5-2.9-1.2-4.9c0.2-2,1.4-4.2,3.2-5.8
	c1.9-1.7,4.5-2.9,7.3-3.6c2.8-0.7,6-1.2,9.2-1.2c6.6-0.1,13.9,1.4,20.5,5.2c1.6,1,3.2,2.1,4.3,3.7c1.2,1.5,1.9,3.3,2,5.2
	c0.1,1.9-0.7,3.7-1.9,5c-1.2,1.3-2.8,2.1-4.3,2.7c-3.1,1.2-6.3,1.4-9.2,1.5c-2.9,0.1-5.6,0-8.1-0.3c-4.9-0.6-8.8-1.8-11.4-2.7
	c-1.3-0.5-2.3-0.9-2.9-1.2c-0.7-0.3-1-0.5-1-0.5c0,0,0.4,0.1,1,0.4c0.7,0.3,1.7,0.6,3,1.1c2.6,0.9,6.5,2,11.4,2.5
	c2.4,0.3,5.1,0.4,8,0.3c2.9-0.2,6-0.4,9-1.5c1.5-0.6,3-1.4,4.1-2.6c1.1-1.2,1.8-2.8,1.8-4.5c-0.1-1.7-0.7-3.4-1.8-4.8
	c-1.1-1.4-2.6-2.5-4.2-3.5c-6.5-3.7-13.7-5.2-20.2-5.2c-3.2,0-6.3,0.4-9.1,1.1c-2.8,0.7-5.3,1.8-7.1,3.4c-1.8,1.6-2.9,3.6-3.2,5.5
	c-0.3,1.9,0.3,3.6,1,4.7c0.7,1.1,1.6,1.8,2.3,2.1C289.5,257.5,289.9,257.5,289.9,257.6z"/>
<path class="st2" d="M324.4,443.8c0,0-0.4,0-1.1-0.3c-0.7-0.3-1.6-0.9-2.4-2.1c-0.8-1.1-1.5-2.9-1.2-4.9c0.2-2,1.4-4.1,3.2-5.8
	c1.9-1.7,4.5-2.9,7.3-3.6c2.8-0.7,6-1.2,9.2-1.2c6.6-0.1,13.9,1.4,20.5,5.2c1.6,1,3.2,2.1,4.3,3.7c1.2,1.5,1.9,3.3,2,5.2
	c0.1,1.9-0.7,3.7-1.9,5c-1.2,1.3-2.8,2.1-4.3,2.7c-3.1,1.2-6.3,1.4-9.2,1.5c-2.9,0.1-5.6,0-8.1-0.3c-4.9-0.6-8.8-1.8-11.4-2.7
	c-1.3-0.5-2.3-0.9-2.9-1.2c-0.7-0.3-1-0.5-1-0.5c0,0,0.4,0.1,1,0.4c0.7,0.3,1.7,0.6,3,1.1c2.6,0.9,6.5,2,11.4,2.5
	c2.4,0.3,5.1,0.4,8,0.3c2.9-0.2,6-0.4,9-1.5c1.5-0.6,3-1.4,4.1-2.6c1.1-1.2,1.8-2.8,1.8-4.5c-0.1-1.7-0.7-3.4-1.8-4.8
	c-1.1-1.4-2.6-2.5-4.2-3.5c-6.5-3.7-13.7-5.2-20.2-5.2c-3.2,0-6.3,0.4-9.1,1.1c-2.8,0.7-5.3,1.8-7.1,3.4c-1.8,1.6-2.9,3.6-3.2,5.5
	c-0.3,1.9,0.3,3.6,1,4.7c0.7,1.1,1.6,1.8,2.3,2.1C324,443.7,324.4,443.8,324.4,443.8z"/>
<path class="st2" d="M284.4,196.6c0,0-0.4,0-1.1-0.3c-0.7-0.3-1.6-0.9-2.4-2.1c-0.8-1.1-1.5-2.9-1.2-4.9c0.2-2,1.4-4.1,3.2-5.8
	c1.9-1.7,4.5-2.9,7.3-3.6c2.8-0.7,6-1.2,9.2-1.2c6.6-0.1,13.9,1.4,20.5,5.2c1.6,1,3.2,2.1,4.3,3.7c1.2,1.5,1.9,3.3,2,5.2
	c0.1,1.9-0.7,3.7-1.9,5c-1.2,1.3-2.8,2.1-4.3,2.7c-3.1,1.2-6.3,1.4-9.2,1.5c-2.9,0.1-5.6,0-8.1-0.3c-4.9-0.6-8.8-1.8-11.4-2.7
	c-1.3-0.5-2.3-0.9-2.9-1.2c-0.7-0.3-1-0.5-1-0.5c0,0,0.4,0.1,1,0.4c0.7,0.3,1.7,0.6,3,1.1c2.6,0.9,6.5,2,11.4,2.5
	c2.4,0.3,5.1,0.4,8,0.3c2.9-0.2,6-0.4,9-1.5c1.5-0.6,3-1.4,4.1-2.6c1.1-1.2,1.8-2.8,1.8-4.5c-0.1-1.7-0.7-3.4-1.8-4.8
	c-1.1-1.4-2.6-2.5-4.2-3.5c-6.5-3.7-13.7-5.2-20.2-5.2c-3.2,0-6.3,0.4-9.1,1.1c-2.8,0.7-5.3,1.8-7.1,3.4c-1.8,1.6-2.9,3.6-3.2,5.5
	c-0.3,1.9,0.3,3.6,1,4.7c0.7,1.1,1.6,1.8,2.3,2.1C284,196.5,284.4,196.5,284.4,196.6z"/>
<path class="st8" d="M488.9,383.7l18.3,0.5l8.7,11.3l-9.4,11.5l-18.8-0.6L488.9,383.7z"/>
<path class="st12" d="M490.7,351.5L509,352l8.7,11.3l-9.4,11.5l-18.8-0.6L490.7,351.5z"/>
<path class="st9" d="M240.9,120.3h-58c-0.4,0-0.7,0.3-0.7,0.7v0.3c0,0.4,0.3,0.7,0.7,0.7h58c0.4,0,0.7-0.3,0.7-0.7V121
	C241.6,120.6,241.3,120.3,240.9,120.3z"/>
<path class="st9" d="M240.9,125.6h-58c-0.4,0-0.7,0.3-0.7,0.7v0.3c0,0.4,0.3,0.7,0.7,0.7h58c0.4,0,0.7-0.3,0.7-0.7v-0.3
	C241.6,125.9,241.3,125.6,240.9,125.6z"/>
<path class="st9" d="M240.9,130.9h-58c-0.4,0-0.7,0.3-0.7,0.7v0.3c0,0.4,0.3,0.7,0.7,0.7h58c0.4,0,0.7-0.3,0.7-0.7v-0.3
	C241.6,131.2,241.3,130.9,240.9,130.9z"/>
<path class="st2" d="M252.3,125.2c0.2-0.1,9.4,11.8,20.6,26.7c11.2,14.9,20.2,27,20.1,27.1c-0.2,0.1-9.4-11.8-20.6-26.7
	C261.1,137.5,252.1,125.3,252.3,125.2z"/>
<path class="st2" d="M254.2,124.1c0,1.2-1,2.3-2.3,2.3c-1.2,0-2.3-1-2.3-2.3c0-1.2,1-2.3,2.3-2.3
	C253.2,121.9,254.2,122.9,254.2,124.1z"/>
<path class="st7" d="M314.7,581.8h-67.6c-3.3,0-5.9-2.7-5.7-6l1.4-28.7c0.1-3.1,2.7-5.5,5.7-5.5h67.6c3.3,0,5.9,2.7,5.7,6l-1.4,28.7
	C320.3,579.4,317.8,581.8,314.7,581.8z"/>
<path class="st2" d="M314.7,581.8c0-0.1,0.8,0.1,2.2-0.5c0.7-0.3,1.5-0.8,2.2-1.7c0.7-0.8,1.2-2.1,1.2-3.5
	c0.3-5.8,0.6-14.2,1.1-24.5c0-2.5,0.8-5.5-1.1-7.6c-0.8-1-2.1-1.8-3.5-2c-1.4-0.1-2.9,0-4.4,0c-6.1,0-12.6,0-19.4,0
	c-13.7,0-28.7,0-44.5,0c-1.9,0-3.7,1-4.6,2.6c-0.5,0.8-0.7,1.7-0.8,2.6c0,1-0.1,1.9-0.1,2.9c-0.2,3.8-0.4,7.6-0.5,11.3
	c-0.2,3.7-0.4,7.4-0.5,10.9c0,0.9-0.1,1.8-0.1,2.7c-0.1,0.9-0.1,1.7,0.2,2.5c0.5,1.6,1.7,2.9,3.2,3.5c0.8,0.3,1.5,0.4,2.4,0.4
	c0.8,0,1.7,0,2.5,0c1.7,0,3.3,0,4.9,0c3.2,0,6.4,0,9.4,0c6.1,0,11.7,0,16.9,0c10.3,0,18.7,0.1,24.5,0.1c2.9,0,5.1,0.1,6.7,0.1
	c0.7,0,1.3,0,1.7,0C314.5,581.8,314.7,581.8,314.7,581.8c0,0-0.2,0-0.6,0c-0.4,0-1,0-1.7,0c-1.6,0-3.8,0-6.7,0.1
	c-5.8,0-14.2,0.1-24.5,0.1c-5.2,0-10.8,0-16.9,0c-3,0-6.2,0-9.4,0c-1.6,0-3.3,0-4.9,0c-0.8,0-1.7,0-2.5,0c-0.8,0-1.8-0.1-2.6-0.4
	c-1.7-0.7-3-2.1-3.6-3.9c-0.3-0.9-0.3-1.9-0.2-2.7c0-0.9,0.1-1.8,0.1-2.7c0.2-3.6,0.3-7.2,0.5-10.9c0.2-3.7,0.4-7.5,0.5-11.3
	c0-1,0.1-1.9,0.1-2.9c0-1,0.3-2,0.9-2.9c1.1-1.8,3.1-2.9,5.2-2.9c15.8,0,30.8,0,44.5,0c6.8,0,13.3,0,19.4,0c1.5,0,3-0.1,4.5,0.1
	c1.5,0.2,2.9,1,3.8,2.2c0.9,1.1,1.4,2.6,1.3,4c-0.1,1.4-0.1,2.7-0.2,4c-0.5,10.3-1,18.7-1.3,24.5c0,1.5-0.6,2.8-1.3,3.6
	c-0.7,0.9-1.6,1.4-2.3,1.7c-0.7,0.3-1.3,0.4-1.7,0.4C314.9,581.8,314.7,581.8,314.7,581.8z"/>
<path class="st9" d="M310.6,555.6h-58c-0.4,0-0.7,0.3-0.7,0.7v0.3c0,0.4,0.3,0.7,0.7,0.7h58c0.4,0,0.7-0.3,0.7-0.7v-0.3
	C311.3,555.9,311,555.6,310.6,555.6z"/>
<path class="st9" d="M310.6,560.9h-58c-0.4,0-0.7,0.3-0.7,0.7v0.3c0,0.4,0.3,0.7,0.7,0.7h58c0.4,0,0.7-0.3,0.7-0.7v-0.3
	C311.3,561.2,311,560.9,310.6,560.9z"/>
<path class="st9" d="M310.6,566.2h-58c-0.4,0-0.7,0.3-0.7,0.7v0.3c0,0.4,0.3,0.7,0.7,0.7h58c0.4,0,0.7-0.3,0.7-0.7v-0.3
	C311.3,566.5,311,566.2,310.6,566.2z"/>
<path class="st2" d="M340.3,447.8c0.2,0.1-10.6,21.2-24.1,47.1c-13.5,25.9-24.6,46.9-24.8,46.8c-0.2-0.1,10.6-21.2,24.2-47.1
	C329.1,468.6,340.2,447.7,340.3,447.8z"/>
<path class="st2" d="M293.7,541.7c0,1.2-1,2.3-2.3,2.3c-1.2,0-2.3-1-2.3-2.3c0-1.2,1-2.3,2.3-2.3
	C292.7,539.4,293.7,540.4,293.7,541.7z"/>
<path class="st13" d="M711.7,564.4h-196v-8.1h196c1.9,0,3.4,1.5,3.4,3.4v1.4C715.1,562.9,713.6,564.4,711.7,564.4z"/>
<path class="st2" d="M513.1,560.9c0,0.2-16.4,0.3-36.7,0.3c-20.3,0-36.7-0.1-36.7-0.3c0-0.2,16.4-0.3,36.7-0.3
	C496.7,560.7,513.1,560.8,513.1,560.9z"/>
<path class="st13" d="M540.1,564.4h-92c-11.1,0-20.2-9-20.2-20.2v-8.4c0-11.1,9-20.2,20.2-20.2h92V564.4z"/>
<path class="st13" d="M711.7,523.7H517.3c-0.8,0-1.5-0.7-1.5-1.5v-5c0-0.8,0.7-1.5,1.5-1.5h194.4c1.9,0,3.4,1.5,3.4,3.4v1.4
	C715.1,522.2,713.6,523.7,711.7,523.7z"/>
<path class="st14" d="M709.1,556.3H538c-9,0-16.3-7.3-16.3-16.3c0-9,7.3-16.3,16.3-16.3h171.1C704.5,534.5,704.5,545.4,709.1,556.3z
	"/>
<path class="st15" d="M459.8,564.4H448c-11.1,0-20.2-9-20.2-20.2v-8.4c0-11.1,9-20.2,20.2-20.2h69.3c-0.8,0-1.5,0.7-1.5,1.5v5
	c0,0.2,0,0.3,0.1,0.5c-8.6,11.9-6.3,29.7,4.2,40.2h-53.8C464,562.9,461.7,563.4,459.8,564.4z"/>
<path class="st15" d="M515.8,522.6c-0.1-0.2-0.1-0.3-0.1-0.5v-5c0-0.8,0.7-1.5,1.5-1.5h6.3C520.4,517.5,517.8,519.9,515.8,522.6z"/>
<path class="st2" d="M688.3,541.5c0,0.2-35.1,0.3-78.4,0.3c-43.3,0-78.5-0.1-78.5-0.3c0-0.2,35.1-0.3,78.5-0.3
	C653.2,541.2,688.3,541.3,688.3,541.5z"/>
<path class="st2" d="M704.5,548.7c0,0.2-35.1,0.3-78.4,0.3c-43.3,0-78.4-0.1-78.4-0.3c0-0.2,35.1-0.3,78.4-0.3
	C669.3,548.4,704.5,548.6,704.5,548.7z"/>
<path class="st2" d="M699.7,531.2c0,0.2-35.1,0.3-78.4,0.3c-43.3,0-78.5-0.1-78.5-0.3c0-0.2,35.1-0.3,78.5-0.3
	C664.6,530.9,699.7,531,699.7,531.2z"/>
<path class="st2" d="M513.1,519.6c0,0.2-16.4,0.3-36.7,0.3c-20.3,0-36.7-0.1-36.7-0.3c0-0.2,16.4-0.3,36.7-0.3
	C496.7,519.3,513.1,519.5,513.1,519.6z"/>
<path class="st8" d="M521.2,661.5H412.8c-14.4,0-26-11.6-26-26v-10.9c0-14.4,11.6-26,26-26h108.5c5.6,0,10.1,4.5,10.1,10.1v42.7
	C531.3,656.9,526.8,661.5,521.2,661.5z"/>
<path class="st8" d="M752.4,609H502.5c-1.4,0-2.5-1.1-2.5-2.5v-5.5c0-1.4,1.1-2.5,2.5-2.5h249.9c2.4,0,4.3,1.9,4.3,4.3v1.8
	C756.7,607.1,754.8,609,752.4,609z"/>
<path class="st8" d="M752.4,661.5H502.5c-1.4,0-2.5-1.1-2.5-2.5v-5.4c0-1.4,1.1-2.5,2.5-2.5h249.9c2.4,0,4.3,1.9,4.3,4.3v1.8
	C756.7,659.5,754.8,661.5,752.4,661.5z"/>
<path class="st14" d="M749,651H528.6c-11.6,0-21-9.4-21-21c0-11.6,9.4-21,21-21H749C743.1,623,743.1,637,749,651z"/>
<path class="st12" d="M502.5,661.5h-84.6c-17.2,0-31.1-13.9-31.1-31.1c0-17.5,14.2-31.8,31.8-31.8h45.1c0.9,0.2,1.7,0.2,2.6,0.2h3
	h32.2c-0.9,0.4-1.4,1.3-1.4,2.3v5.5c0,0.4,0.1,0.7,0.2,1c-9.5,12.9-8.8,31.5-0.1,45.2c-0.1,0.2-0.1,0.5-0.1,0.8v5.4
	C500,660.3,501.1,661.5,502.5,661.5z"/>
<path class="st12" d="M500.2,607.6c-0.1-0.3-0.2-0.6-0.2-1v-5.5c0-1,0.6-1.9,1.4-2.3h8.2C505.8,601.2,502.7,604.2,500.2,607.6z"/>
<path class="st12" d="M507.7,661.5h-5.2c-1.4,0-2.5-1.1-2.5-2.5v-5.4c0-0.3,0-0.5,0.1-0.8C502.2,656,504.7,658.9,507.7,661.5z"/>
<path class="st2" d="M722.3,632c0,0.2-45.2,0.3-101,0.3c-55.8,0-101-0.1-101-0.3c0-0.2,45.2-0.3,101-0.3
	C677,631.7,722.3,631.8,722.3,632z"/>
<path class="st2" d="M743,641.3c0,0.2-45.2,0.3-101,0.3c-55.8,0-101-0.1-101-0.3c0-0.2,45.2-0.3,101-0.3
	C697.8,641,743,641.2,743,641.3z"/>
<path class="st2" d="M736.9,623.3c0,0.2-45.2,0.3-101,0.3c-55.8,0-101-0.1-101-0.3c0-0.2,45.2-0.3,101-0.3
	C691.7,623,736.9,623.2,736.9,623.3z"/>
<path class="st2" d="M496.6,603.8c0,0.2-21.2,0.3-47.3,0.3c-26.1,0-47.3-0.1-47.3-0.3c0-0.2,21.2-0.3,47.3-0.3
	C475.4,603.5,496.6,603.7,496.6,603.8z"/>
<path class="st3" d="M568.1,598.8H466.3c-8.2,0-14.9-6.7-14.9-14.9v-6.2c0-8.2,6.7-14.9,14.9-14.9h101.9c0.4,0,0.7,0.3,0.7,0.7v34.6
	C568.8,598.5,568.5,598.8,568.1,598.8z"/>
<path class="st3" d="M748.4,571.3H545c-0.9,0-1.6-0.7-1.6-1.6v-5.3c0-0.9,0.7-1.6,1.6-1.6h203.4c1.9,0,3.5,1.6,3.5,3.5v1.5
	C752,569.8,750.4,571.3,748.4,571.3z"/>
<path class="st3" d="M748.4,598.8H545c-0.9,0-1.6-0.7-1.6-1.6V592c0-0.9,0.7-1.6,1.6-1.6h203.4c1.9,0,3.5,1.6,3.5,3.5v1.5
	C752,597.3,750.4,598.8,748.4,598.8z"/>
<path class="st14" d="M745.7,590.4H559.1c-5.3,0-9.5-4.3-9.5-9.5c0-5.3,4.3-9.5,9.5-9.5h186.6C740.9,577.7,740.9,584,745.7,590.4z"
	/>
<path class="st16" d="M545,598.8h-75.7c-9.9,0-17.8-8-17.8-17.8c0-10,8.1-18.1,18.1-18.1H545c-0.9,0-1.6,0.7-1.6,1.6v3.7
	c-7.5,7.4-6.9,17.9,0,25.6v3.5C543.4,598.1,544.1,598.8,545,598.8z"/>
<path class="st16" d="M543.4,568.1v-3.7c0-0.9,0.7-1.6,1.6-1.6h6.6C548.2,564.3,545.5,566.1,543.4,568.1z"/>
<path class="st16" d="M549.6,598.8H545c-0.9,0-1.6-0.7-1.6-1.6v-3.5C545.1,595.6,547.2,597.4,549.6,598.8z"/>
<path class="st2" d="M724,579.4c0,0.2-36.8,0.3-82.1,0.3c-45.3,0-82.1-0.1-82.1-0.3s36.7-0.3,82.1-0.3
	C687.2,579.1,724,579.2,724,579.4z"/>
<path class="st2" d="M740.9,584.5c0,0.2-36.8,0.3-82.1,0.3c-45.3,0-82.1-0.1-82.1-0.3s36.7-0.3,82.1-0.3
	C704.1,584.2,740.9,584.3,740.9,584.5z"/>
<path class="st2" d="M540.6,595.3c0,0.2-17.2,0.3-38.4,0.3c-21.2,0-38.4-0.1-38.4-0.3s17.2-0.3,38.4-0.3
	C523.4,595,540.6,595.1,540.6,595.3z"/>
<path class="st2" d="M540.6,567.1c0,0.2-17.2,0.3-38.4,0.3c-21.2,0-38.4-0.1-38.4-0.3c0-0.2,17.2-0.3,38.4-0.3
	C523.4,566.8,540.6,566.9,540.6,567.1z"/>
<path class="st2" d="M749.5,562.9c0,0.2-63.1,0.3-140.9,0.3c-77.9,0-141-0.1-141-0.3c0-0.2,63.1-0.3,141-0.3
	C686.4,562.6,749.5,562.7,749.5,562.9z"/>
<path class="st4" d="M726,196.5h-60.5c-12.8,0-23.2,10.4-23.2,23.2c0,12.4,9.7,22.4,21.8,23.1c1.8,3.2,3.6,6.3,5.5,9.5
	c2.3-3.1,4.6-6.3,6.8-9.4H726c12.8,0,23.2-10.4,23.2-23.2S738.8,196.5,726,196.5z"/>
<path class="st2" d="M726,196.5c0,0,0.2,0,0.6,0c0.4,0,1,0,1.8,0.1c1.6,0.2,3.9,0.5,6.8,1.7c2.8,1.2,6,3.3,8.9,6.6
	c1.4,1.7,2.6,3.7,3.6,6c1,2.3,1.5,4.9,1.7,7.7c0.3,5.5-1.5,11.8-5.9,16.7c-2.2,2.5-5,4.5-8.2,6c-3.2,1.4-6.9,2-10.6,1.9
	c-14.7,0-31,0-48.2,0l0.3-0.1c-2.2,3-4.5,6.2-6.8,9.4l-0.3,0.4l-0.3-0.5c-0.7-1.2-1.5-2.5-2.2-3.9c-1.1-1.9-2.2-3.8-3.2-5.6l0.3,0.2
	c-2.3-0.2-4.6-0.6-6.8-1.4c-2.2-0.8-4.2-1.9-6-3.3c-3.6-2.7-6.4-6.5-7.9-10.6c-1.6-4.1-1.8-8.5-1.1-12.7c0.8-4.1,2.7-7.9,5.4-10.9
	c2.6-3,5.9-5.3,9.5-6.6c0.4-0.2,0.9-0.3,1.3-0.5l1.4-0.3c0.9-0.3,1.8-0.3,2.7-0.5c0.9-0.1,1.8-0.1,2.7-0.2c0.9,0,1.8,0,2.7,0
	c7,0,13.5,0,19.5,0c11.9,0,21.5,0.1,28.1,0.1c3.3,0,5.9,0,7.6,0.1c0.8,0,1.5,0,2,0C725.7,196.5,726,196.5,726,196.5s-0.2,0-0.7,0
	c-0.5,0-1.1,0-2,0c-1.8,0-4.3,0-7.6,0.1c-6.7,0-16.2,0.1-28.1,0.1c-5.9,0-12.5,0-19.5,0c-0.9,0-1.8,0-2.7,0
	c-0.9,0.1-1.8,0.1-2.7,0.2c-0.9,0.2-1.8,0.2-2.7,0.5l-1.3,0.3c-0.4,0.1-0.9,0.3-1.3,0.5c-3.5,1.3-6.7,3.5-9.3,6.4
	c-2.6,2.9-4.4,6.6-5.2,10.6c-0.7,4-0.5,8.3,1,12.3c1.5,4,4.2,7.6,7.7,10.2c1.8,1.3,3.7,2.4,5.8,3.2c2.1,0.7,4.3,1.2,6.6,1.4l0.2,0
	l0.1,0.2c1,1.8,2.1,3.7,3.2,5.6c0.8,1.3,1.5,2.6,2.2,3.9l-0.6,0c2.3-3.2,4.7-6.4,6.8-9.4l0.1-0.1h0.2c17.2,0,33.5,0,48.2,0
	c3.7,0.1,7.2-0.5,10.3-1.9c3.1-1.4,5.9-3.4,8-5.8c4.3-4.8,6.1-10.9,5.8-16.3c-0.1-2.7-0.7-5.3-1.6-7.5c-0.9-2.3-2.1-4.2-3.5-5.9
	c-2.8-3.3-5.9-5.4-8.7-6.6C729.4,196.1,725.9,196.7,726,196.5z"/>
<path class="st17" d="M669.2,212.4l2.2,4.4l4.8,0.7l-3.5,3.4l0.8,4.8l-4.3-2.3l-4.3,2.3l0.8-4.8l-3.5-3.4l4.8-0.7L669.2,212.4z"/>
<path class="st17" d="M687.6,212.4l2.2,4.4l4.8,0.7l-3.5,3.4l0.8,4.8l-4.3-2.3l-4.3,2.3l0.8-4.8l-3.5-3.4l4.8-0.7L687.6,212.4z"/>
<path class="st17" d="M706,212.4l2.2,4.4l4.8,0.7l-3.5,3.4l0.8,4.8l-4.3-2.3l-4.3,2.3l0.8-4.8l-3.5-3.4l4.8-0.7L706,212.4z"/>
<path class="st17" d="M724.4,212.4l2.2,4.4l4.8,0.7l-3.5,3.4l0.8,4.8l-4.3-2.3l-4.3,2.3l0.8-4.8l-3.5-3.4l4.8-0.7L724.4,212.4z"/>
<path class="st4" d="M127,170.9l-2.6-9.6c3.3-5.4,5-11.9,4.5-18.9c-1.1-15.6-13.8-28.3-29.5-29.4c-19.6-1.4-35.8,15-34.1,34.6
	c1.3,15.7,14.4,28.3,30.1,29c8.1,0.4,15.5-2.2,21.3-6.8l0,0L127,170.9z"/>
<path class="st2" d="M127,170.9c0,0-0.2,0-0.7-0.1c-0.5-0.1-1.1-0.1-2-0.2c-1.7-0.2-4.3-0.5-7.5-0.8l0.1,0.2l0,0l0-0.2l-0.2,0
	c-3.2,2.5-8,5.2-14.2,6.2c-3.1,0.6-6.5,0.6-10.1,0c-3.6-0.5-7.3-1.7-10.8-3.7c-3.5-2-6.8-4.8-9.5-8.3c-2.7-3.5-4.7-7.7-5.8-12.2
	c-2.1-9.1,0.1-20,7.1-27.7l1.3-1.4l1.4-1.3c0.9-0.9,2-1.6,3-2.4c2.1-1.4,4.3-2.7,6.7-3.5c4.7-1.8,9.6-2.4,14.3-2
	c4.7,0.5,9.1,2,12.9,4.2c3.8,2.2,7,5.2,9.4,8.4c4.8,6.5,6.6,14.1,6.2,20.3c-0.3,6.3-2.4,11.4-4.5,14.9l0,0.1c0.9,3.1,1.5,5.4,2,7
	c0.2,0.8,0.4,1.4,0.5,1.8C127,170.7,127,170.9,127,170.9c0,0,0-0.2-0.1-0.6c-0.1-0.4-0.3-1-0.5-1.8c-0.4-1.7-1-4.1-1.8-7.2l0,0.1
	c2.1-3.5,4.3-8.6,4.7-15c0.4-6.3-1.3-14-6.2-20.7c-2.4-3.3-5.7-6.3-9.5-8.6c-3.9-2.3-8.4-3.8-13.2-4.3c-4.8-0.4-9.9,0.2-14.6,2
	c-2.4,0.9-4.7,2.2-6.8,3.6c-1,0.8-2.1,1.5-3.1,2.4l-1.5,1.3l-1.3,1.5c-7.1,7.9-9.4,19-7.2,28.3c1.1,4.7,3.2,9,5.9,12.5
	c2.7,3.5,6.1,6.4,9.7,8.4c3.6,2,7.4,3.2,11,3.8c3.6,0.5,7.1,0.5,10.3-0.1c6.3-1.1,11.1-3.9,14.3-6.5l-0.2-0.2l0,0l0,0.2l0.1,0
	c3.3,0.3,5.9,0.5,7.6,0.7c0.8,0.1,1.5,0.1,1.9,0.2C126.8,170.9,127.1,170.9,127,170.9z"/>
<path class="st8" d="M96.6,160.3l-16.8-11.2l3.9-5.8l11.2,7.5l14-18.5l5.6,4.2L96.6,160.3z"/>
<path class="st2" d="M564.2,213.8c0,0-6.1,22.6-6.6,38.7l-0.2,5.3c0,0,13.4,11.1,24.6,11.8l9.4-23.1L564.2,213.8z"/>
<path class="st2" d="M623.6,227.7c-2.6-11-3.5-23.9-12.7-31.1c-6.8-5.3-14.6-6.8-23.2-6.5c-4.3,0.2-9.1,2.1-12.8,4.2
	c-5.1,2.9-7.2,8.7-9.7,14c-4.9,10.6-4.3,25-1,29l44.4,23.5c8.9-4.6,14.4-6.5,15.8-18.3C625.1,237.7,624.7,232.6,623.6,227.7z"/>
<path class="st18" d="M610.4,205.4l-28-8.2c-9-1.3-15.5,9.6-16.4,18.6c-1,10.1-1.9,22.4-1,30c1.8,15.2,13.3,17.6,13.3,17.6
	c0-0.1,0,0.2-0.1,4.7l0,9.3c-0.1,2.9,0.4,3.9,2.2,6.3c4.1,5.3,11.6,6.1,20.5,2.8c5.1-1.9,8.7-5.7,9.1-10.9L615,211
	C615.1,208.2,613.1,205.8,610.4,205.4z"/>
<path class="st2" d="M568.7,229.6c-0.1,1,0.7,1.9,1.8,2c1.1,0.1,2-0.6,2.1-1.7c0.1-1-0.7-1.9-1.8-2
	C569.7,227.8,568.8,228.5,568.7,229.6z"/>
<path class="st2" d="M567.9,224.9c0.2,0.3,1.7-0.8,3.8-0.7c2.1,0.1,3.6,1.2,3.8,0.9c0.1-0.1-0.1-0.6-0.8-1.1c-0.6-0.5-1.7-1-3-1.1
	c-1.3,0-2.4,0.4-3.1,0.9C568,224.3,567.8,224.8,567.9,224.9z"/>
<path class="st2" d="M587.1,229.9c-0.1,1,0.7,1.9,1.8,2c1.1,0.1,2-0.6,2.1-1.7c0.1-1-0.7-1.9-1.8-2S587.1,228.8,587.1,229.9z"/>
<path class="st2" d="M588.4,225.2c0.2,0.3,1.7-0.8,3.8-0.7c2.1,0.1,3.6,1.2,3.8,0.9c0.1-0.1-0.1-0.6-0.8-1.1c-0.6-0.5-1.7-1-3-1.1
	c-1.3,0-2.4,0.4-3.1,0.9C588.6,224.6,588.3,225,588.4,225.2z"/>
<path class="st2" d="M580.3,238.7c0-0.1-1.3-0.4-3.4-0.7c-0.5-0.1-1-0.2-1.1-0.6c-0.1-0.4,0.1-1,0.4-1.6c0.6-1.3,1.1-2.6,1.7-4
	c2.4-5.7,4.2-10.4,4-10.5c-0.2-0.1-2.4,4.4-4.8,10.1c-0.6,1.4-1.1,2.7-1.7,4c-0.2,0.6-0.6,1.3-0.4,2.1c0.1,0.4,0.5,0.7,0.8,0.8
	c0.3,0.1,0.6,0.1,0.9,0.2C579,238.8,580.3,238.8,580.3,238.7z"/>
<path class="st19" d="M578.3,263.3c0,0,10.2,1.1,20.5-4.6c0,0-5.4,10.4-20.5,8.4L578.3,263.3z"/>
<path class="st19" d="M587.1,243.3c-0.5-0.9-1.5-1.4-2.5-1.5c-1.4-0.1-2.7,0.3-3.7,1.6c-0.3,0.4-0.4,1.5-0.2,1.8
	c0.1,0.3,0,0.2,0.2,0.4c0.8,0.8,1.7,1.6,2.7,1.9c1.1,0.3,2.4,0,3.2-1C587.6,245.5,587.6,244.2,587.1,243.3z"/>
<path class="st2" d="M586.8,240.5c-0.3,0-0.4,2.2-2.5,3.8c-2,1.5-4.4,1.2-4.4,1.5c0,0.1,0.5,0.5,1.5,0.5c1,0.1,2.5-0.2,3.7-1.1
	c1.2-0.9,1.8-2.2,1.9-3.2C587.2,241,586.9,240.5,586.8,240.5z"/>
<path class="st2" d="M587.7,217.5c0.2,0.6,2.3,0.5,4.7,1.1c2.4,0.5,4.3,1.4,4.7,0.9c0.2-0.2-0.1-0.8-0.9-1.4
	c-0.7-0.6-1.9-1.3-3.4-1.6c-1.4-0.3-2.8-0.2-3.7,0.1C588.1,216.8,587.6,217.2,587.7,217.5z"/>
<path class="st2" d="M568.1,219.3c0.5,0.4,2-0.3,3.9-0.6c1.9-0.4,3.6-0.2,3.9-0.7c0.1-0.3-0.2-0.7-1-1c-0.8-0.3-2-0.5-3.3-0.3
	c-1.3,0.2-2.4,0.8-3,1.4C568,218.6,567.9,219.1,568.1,219.3z"/>
<path class="st2" d="M582.3,195.5l-0.1,0.3l0.1,0L582.3,195.5z"/>
<path class="st2" d="M601.9,269.5c0.4-4-1.2-8-0.7-11.9c0.5-4.2,3.2-7.8,4.3-11.9c1.8-6.5-0.7-13.5-1.6-20.2
	c-3.8-0.5-7.3-2.7-9.8-5.7c-3-3.5-4.9-7.9-6.7-12.2c0.1,4.2,1.6,8.4,4.1,11.8c-1.7,0.4-3.5-0.4-4.7-1.5c-1.3-1.2-2.1-2.7-2.8-4.3
	c-1.6-3.8-2.5-8-2.7-12.1c-0.6,5.9,0.1,12,2,17.7c-1.1-0.3-2.2,0-3.3,0.1c-1.1,0.2-2.4,0.1-3.1-0.7c-0.5-0.5-0.7-1.3-0.9-2
	c-1-5.1-1.2-10.3-0.5-15.4c-1.4,2.8-2.7,5.6-3.5,8.5c-0.8,3-1,6.2-0.1,9.1c-0.4,0.6-1.4,0.5-1.9,0c-0.5-0.5-0.7-1.2-0.8-1.9
	c-0.4-2.5,0.1-5.1,0.5-7.7c-1.5,2.7-2,5.8-2.9,8.8c-0.8,3-2.2,6-4.7,7.7c-0.4-4.4-0.3-7.5,0.4-11.6c0.5-3.2,2-6.3,3.4-9.2
	c1.6-3.2,3.7-6.4,6.1-8.5c4.5-3.9,6.3-2.2,9.2-0.7l0.3,0.1l0-0.2l0.1-0.6c7.4-1.7,15.3-1.3,22.5,1.1c5.4,1.8,5.9,13.3,7.2,7.8
	c0.8-3.3,5.1-0.3,5.2-0.2c6.3,11.4,13,29.5,13.3,58.2L601.9,269.5z"/>
<path class="st2" d="M620.2,182.2c-2.5-2.8-6.1-4.7-9.8-4.8c-3.7-0.1-7.6,1.7-9.5,5c-1.9,3.2-1.5,7.8,1.2,10.4l4.7,3.7
	c3.2,1.8,7.2,2.4,10.6,1c3.4-1.3,6.1-4.8,6-8.4C623.3,186.5,621.9,184.1,620.2,182.2z"/>
<path class="st3" d="M616.6,203c-0.9,0.4-3.5-3.5-8-6.6c-4.5-3.2-9.1-4.2-9-5.2c0-0.5,1.3-0.8,3.4-0.6c2.1,0.2,4.9,1.1,7.6,2.9
	c2.6,1.8,4.5,4.2,5.4,6C616.9,201.5,617,202.8,616.6,203z"/>
<path class="st13" d="M551.6,327.4l17.5-16.4l11.9,18.9c-0.2,1.7-15.4,34.3-21.9,41c-7.5,7.7-17.7,7.1-22.2-3.5
	c-3.5-8.4-9.4-34.2-9.4-34.2L551.6,327.4z"/>
<path class="st13" d="M570.7,278c-4.2,1.5-13.8,6.8-16.6,10.2c-1.4,1.7-2.7,3.6-3.5,5.5c-2.2,4.8-6.4,40.6-6.4,40.6l18.7,13.5
	l16.2-62.5l-1-9.9L570.7,278z"/>
<path class="st17" d="M564.5,381.3l1.2-9.2c0,0-3.6-16.5-4.9-30.8c-2.1-22.7,3.8-36.9,4.6-39.3c0.5-1.4,12.6-26.6,12.6-26.6
	s2.6,7.8,12.8,5.9c14.3-2.6,19.6-10.3,19.6-10.3l18.5,4c0,0,7.2,29,8.3,38.6c0.6,5.1-6.2,34.3-6.2,34.3l10.9,16.3
	c0.3,0.8-4.7,23.1-5.7,24.1c-1,0.9-18.8,5.1-19,5.8c-0.2,0.8-33.9,14.9-33.9,14.3c0-0.6-16.2-19.8-16.2-19.8L564.5,381.3z"/>
<path class="st2" d="M560.3,305.4c0,0,0,0.2,0,0.7c-0.1,0.5-0.1,1.2-0.2,1.9c-0.2,1.7-0.5,4.1-0.7,7.1c-0.5,6-0.9,14.3,0.4,23.3
	c1.2,9.1,2.9,17.2,4.1,23.1c0.6,2.9,1,5.3,1.3,7c0.1,0.8,0.2,1.4,0.3,1.9c0.1,0.4,0.1,0.7,0.1,0.7c0,0-0.1-0.2-0.2-0.6
	c-0.1-0.5-0.3-1.1-0.4-1.9c-0.4-1.7-0.9-4.1-1.5-6.9c-1.2-5.9-3.1-14-4.3-23.1c-1.4-9.1-0.8-17.5-0.2-23.4c0.3-3,0.7-5.4,0.9-7.1
	c0.1-0.8,0.3-1.5,0.4-1.9C560.2,305.6,560.3,305.4,560.3,305.4z"/>
<path class="st15" d="M572.5,621.1l-0.1,27.5c0,0-28,9.1-28.5,14.2l53.4,2.2l2-42.9L572.5,621.1z"/>
<path class="st9" d="M589,647c1,0.3,1.7,1.5,1.4,2.5c-0.3,1-1.5,1.7-2.5,1.4c-1-0.3-1.9-1.7-1.5-2.7c0.4-1,1.9-1.7,2.8-1.2"/>
<path class="st4" d="M571.5,648.3c0,0.3,1.3,0.4,2.5,1.3c1.3,0.9,1.9,2,2.1,1.9c0.2,0-0.1-1.6-1.6-2.7
	C573.1,647.8,571.5,648.1,571.5,648.3z"/>
<path class="st4" d="M565.8,650.4c-0.1,0.2,1,0.7,1.9,1.9c0.9,1.1,1,2.3,1.3,2.3c0.2,0.1,0.5-1.5-0.6-2.9
	C567.4,650.3,565.9,650.1,565.8,650.4z"/>
<path class="st4" d="M562.4,657c0.2,0.1,0.7-1.2,0-2.7c-0.6-1.5-1.8-2.1-1.9-1.9c-0.2,0.2,0.6,1,1.1,2.2
	C562.1,655.8,562.1,656.9,562.4,657z"/>
<path class="st4" d="M572.3,642c0.1,0.2,1.3-0.1,2.8,0.1c1.5,0.1,2.6,0.7,2.7,0.5c0.2-0.2-0.9-1.2-2.7-1.4
	C573.4,641,572.1,641.8,572.3,642z"/>
<path class="st15" d="M698.5,618.2l10.2,31.7l15.3,22.7c1.1,1.6,0.6,3.9-1.1,4.9c-1,0.6-2.1,0.6-3.1,0.2
	c-6.4-2.9-29.9-13.8-30.5-16.2c-0.7-2.7-13-32.7-13-32.7L698.5,618.2z"/>
<path class="st6" d="M691,650.8c-0.1,0-0.3,0-0.4-0.1c-1-0.3-1.8-1.6-1.5-2.5c0.3-0.7,1.2-1.4,2-1.4c0.2,0,0.4,0,0.6,0.2
	c0.9,0.3,1.5,1.4,1.2,2.3C692.7,650.1,691.9,650.8,691,650.8z"/>
<path class="st4" d="M701,652.9c0.2,0.2,1.6-1.2,3.9-2c2.2-0.9,4.2-0.9,4.2-1.2c0-0.2-2.1-0.5-4.5,0.5
	C702.2,651.1,700.9,652.8,701,652.9z"/>
<path class="st4" d="M697.8,643.7c0.2,0.1,1.5-1.5,4-2.2c2.4-0.8,4.5-0.2,4.5-0.4c0-0.1-0.5-0.4-1.3-0.5c-0.9-0.2-2.1-0.2-3.4,0.2
	c-1.3,0.4-2.3,1.1-3,1.7C697.9,643.1,697.7,643.6,697.8,643.7z"/>
<path class="st4" d="M701.1,639.7c0,0,0-0.5-0.4-1.2c-0.3-0.7-0.9-1.8-2-2.8c-0.5-0.5-1.2-1.1-2.2-1.2c-0.5-0.1-1.1,0.2-1.4,0.8
	c-0.2,0.5-0.2,1.1,0,1.6c0.7,2,3.1,3.3,5.5,2.8c2.3-0.5,3.9-2.5,4.2-4.6c0-0.5,0-1.1-0.4-1.6c-0.4-0.5-1.1-0.4-1.6-0.2
	c-0.9,0.5-1.3,1.2-1.7,1.8c-0.8,1.2-1.1,2.4-1.3,3.2c-0.2,0.8-0.1,1.3-0.1,1.3c0.1,0,0.3-1.8,1.8-4.2c0.4-0.6,0.9-1.2,1.5-1.5
	c0.3-0.1,0.6-0.1,0.9,0.1c0.2,0.2,0.3,0.6,0.2,1c-0.3,1.7-1.7,3.5-3.7,3.9c-2,0.4-4.1-0.7-4.7-2.3c-0.1-0.4-0.2-0.8,0-1.1
	c0.1-0.3,0.4-0.5,0.7-0.5c0.7,0,1.3,0.6,1.9,1C700.5,638,700.9,639.8,701.1,639.7z"/>
<path class="st3" d="M411.5,295.7c14.1,13.2,32.5,20.1,51.8,19.5c19.3-0.6,37.2-8.7,50.4-22.8c13.2-14.1,20.1-32.5,19.5-51.8
	c-0.6-19.3-8.7-37.2-22.8-50.4c-14.1-13.2-32.5-20.1-51.8-19.5c-19.3,0.6-37.2,8.7-50.4,22.8c-16.5,17.7-22.5,41.5-18.1,63.6
	C392.8,271.4,400,285,411.5,295.7z M517.4,295.9c-14.1,15.1-33.3,23.8-54,24.5c-20.7,0.7-40.4-6.7-55.5-20.9
	c-31.2-29.2-32.8-78.3-3.6-109.5c14.1-15.1,33.3-23.8,54-24.5c20.7-0.7,40.4,6.7,55.5,20.9c12.3,11.5,19.9,26,23,41.4
	C541.5,251.5,535.1,277,517.4,295.9z"/>
<path class="st2" d="M411.5,295.7c14.1,13.2,32.5,20.1,51.8,19.5c19.3-0.6,37.2-8.7,50.4-22.8c13.2-14.1,20.1-32.5,19.5-51.8
	c-0.6-19.3-8.7-37.2-22.8-50.4c-14.1-13.2-32.5-20.1-51.8-19.5c-19.3,0.6-37.2,8.7-50.4,22.8c-16.5,17.7-22.5,41.5-18.1,63.6
	C392.8,271.4,400,285,411.5,295.7z M517.4,295.9c-14.1,15.1-33.3,23.8-54,24.5c-20.7,0.7-40.4-6.7-55.5-20.9
	c-31.2-29.2-32.8-78.3-3.6-109.5c14.1-15.1,33.3-23.8,54-24.5c20.7-0.7,40.4,6.7,55.5,20.9c12.3,11.5,19.9,26,23,41.4
	C541.5,251.5,535.1,277,517.4,295.9z"/>
<path class="st3" d="M413.4,292c14.1,13.2,32.5,20.1,51.8,19.5c19.3-0.6,37.2-8.7,50.4-22.8c13.2-14.1,20.1-32.5,19.5-51.8
	c-0.6-19.3-8.7-37.2-22.8-50.4c-14.1-13.2-32.5-20.1-51.8-19.5c-19.3,0.6-37.2,8.7-50.4,22.8c-16.5,17.7-22.5,41.5-18.1,63.6
	C394.7,267.7,401.9,281.3,413.4,292z M519.3,292.2c-14.1,15.1-33.3,23.8-54,24.5c-20.7,0.7-40.4-6.7-55.5-20.9
	c-31.2-29.2-32.8-78.3-3.6-109.5c14.1-15.1,33.3-23.8,54-24.5c20.7-0.7,40.4,6.7,55.5,20.9c12.3,11.5,19.9,26,23,41.4
	C543.4,247.7,537,273.3,519.3,292.2z"/>
<path class="st19" d="M553.4,343.8c0,0.2,2.7,0.6,6,0.3c3.3-0.2,6-0.7,6-0.9c0-0.2-2.7,0-6,0.2C556.1,343.7,553.4,343.6,553.4,343.8
	z"/>
<path class="st19" d="M556,348.5c0,0.1,0.6,0.2,1.5,0.3c0.9,0.1,2.2,0.3,3.6,0.4c1.4,0.1,2.7,0,3.6-0.1c0.9-0.1,1.5,0,1.5-0.1
	c0-0.1-0.6-0.3-1.5-0.4c-0.9-0.1-2.2,0-3.6-0.1c-1.4-0.1-2.7-0.2-3.6-0.2C556.6,348.3,556,348.4,556,348.5z"/>
<path class="st19" d="M557.4,353.1c0,0.2,2.6,0.5,5.9,0.8c1.6,0.1,3.1,0.2,4,0.6c1,0.4,1.4,0.9,1.5,0.8c0.1,0-0.3-0.7-1.3-1.2
	c-1-0.6-2.6-0.8-4.2-0.9C560.1,353,557.4,352.9,557.4,353.1z"/>
<path class="st20" d="M118.6,303.8c0,0-9.8,54.6-9.3,59.7c0.5,5.1,3.1,13.2,9,14.6c5.9,1.4,11.4,0,11.4,0l-7.1-67.1L118.6,303.8z"/>
<path class="st20" d="M147.3,257.2l-0.7-56.4c-0.6-14,7-26.1,21.1-26.3l1.3,0.1c13.1,0.5,23.5,11,24.1,24.1
	c0.5,12.2,0.8,25.6,0.5,32.1c-0.7,13.5-14.3,15-14.3,15c0,0-0.1,8.2-0.1,12.1l-10.8,15l0,0.8L147.3,257.2z"/>
<path class="st21" d="M179.2,245.7c0,0-8.5,0.1-17.3-5.9c0,0,3.8,10.3,17.3,9.6L179.2,245.7z"/>
<path class="st2" d="M188.7,210.2c0,1-0.9,1.9-1.9,1.9c-1.1,0-1.9-0.8-1.9-1.8c0-1,0.9-1.9,1.9-1.9
	C187.9,208.4,188.7,209.2,188.7,210.2z"/>
<path class="st2" d="M189.9,204.4c-0.2,0.2-1.7-0.9-3.7-1c-2.1-0.1-3.6,0.9-3.8,0.6c-0.1-0.1,0.2-0.6,0.8-1c0.7-0.5,1.8-0.9,3.1-0.8
	c1.3,0.1,2.4,0.6,3,1.1C189.8,203.8,190,204.3,189.9,204.4z"/>
<path class="st2" d="M170.2,210.2c0,1-0.9,1.9-1.9,1.9c-1.1,0-1.9-0.8-1.9-1.8c0-1,0.9-1.9,1.9-1.9
	C169.4,208.4,170.2,209.2,170.2,210.2z"/>
<path class="st2" d="M169.6,204c-0.2,0.2-1.7-0.9-3.7-1c-2.1-0.1-3.6,0.9-3.8,0.6c-0.1-0.1,0.2-0.6,0.8-1c0.7-0.5,1.8-0.9,3.1-0.8
	c1.3,0.1,2.4,0.6,3,1.1C169.5,203.5,169.7,203.9,169.6,204z"/>
<path class="st2" d="M176.4,220.3c0-0.1,1.3-0.3,3.4-0.5c0.5,0,1-0.1,1.1-0.5c0.1-0.4-0.1-1-0.3-1.6c-0.4-1.3-0.9-2.7-1.4-4.1
	c-1.9-5.8-3.3-10.6-3.1-10.7c0.2-0.1,2,4.6,3.9,10.4c0.5,1.4,0.9,2.8,1.3,4.1c0.2,0.6,0.5,1.3,0.2,2.1c-0.2,0.4-0.6,0.7-0.9,0.7
	c-0.3,0.1-0.6,0.1-0.9,0.1C177.7,220.4,176.4,220.4,176.4,220.3z"/>
<path class="st2" d="M170.5,197.6c-0.3,0.5-2.3-0.1-4.7-0.3c-2.4-0.2-4.5,0.1-4.7-0.4c-0.1-0.3,0.3-0.7,1.2-1.1
	c0.9-0.4,2.2-0.7,3.7-0.6c1.5,0.1,2.7,0.6,3.5,1.1C170.3,196.8,170.7,197.4,170.5,197.6z"/>
<path class="st2" d="M190.2,198.3c-0.4,0.5-2.1-0.1-4.1-0.2c-2-0.1-3.8,0.2-4.1-0.3c-0.2-0.2,0.1-0.7,0.9-1.1c0.8-0.4,2-0.8,3.4-0.7
	c1.4,0.1,2.6,0.5,3.3,1C190.2,197.6,190.4,198.1,190.2,198.3z"/>
<path class="st20" d="M147.3,210.8c-0.2-0.1-9.1-3.1-9.2,6.1c-0.1,9.2,9.2,7.4,9.2,7.1C147.3,223.7,147.3,210.8,147.3,210.8z"/>
<path class="st21" d="M144.5,220.5c0,0-0.2,0.1-0.4,0.2c-0.3,0.1-0.7,0.2-1.2,0c-1-0.4-1.8-1.9-1.8-3.6c0-0.8,0.2-1.6,0.5-2.3
	c0.3-0.7,0.7-1.1,1.2-1.2c0.5-0.1,0.8,0.2,0.9,0.5c0.1,0.3,0.1,0.4,0.1,0.5c0,0,0.2-0.2,0.1-0.5c0-0.2-0.1-0.4-0.4-0.6
	c-0.2-0.2-0.5-0.3-0.9-0.2c-0.7,0-1.4,0.7-1.7,1.4c-0.4,0.7-0.6,1.6-0.6,2.6c0,1.9,1,3.6,2.3,4c0.6,0.2,1.2,0,1.5-0.2
	C144.5,220.7,144.5,220.5,144.5,220.5z"/>
<path class="st2" d="M169.9,221.5c0.3,0,0.3,2.1,2.1,3.6c1.8,1.5,4.1,1.3,4.1,1.5c0,0.1-0.5,0.4-1.5,0.4c-0.9,0-2.3-0.3-3.4-1.2
	c-1.1-0.9-1.6-2.1-1.7-3C169.5,222,169.7,221.5,169.9,221.5z"/>
<path class="st2" d="M211.6,186.4c-0.1-0.5-0.5-1-1-1.3c-1.1-0.6-2.3-0.6-3.4-0.6c-2.9-0.1-5.8-0.9-8.4-2.2c0.9-0.5,1.8-1,2.5-1.7
	c1.5-1.5,2.4-3.7,1.7-5.7c-0.1-0.4-0.3-0.8-0.7-0.9c-0.6-0.2-1.1,0.4-1.6,0.9c-1.4,1.5-2.7,2.2-4.7,1.9c-1.3-0.1-2.5-0.4-3.5-1.1
	l-0.1-0.1c-0.5-0.5-0.9-1-1.4-1.4l0,0l0,0c-3.4-3.5-6.4-5.9-9.4-7.2c-4.5-1.9-12-2.7-16.7-1.5c-4.7,1.2-9,4.9-9.7,9.7
	c-2.6-2.3-6.6-2.3-9.8-1l-0.1,0c-3.6,1.2-5.7,5-6.8,8.6c-0.1,0.2-0.1,0.4-0.2,0.6c-1.2,1.9-2.9,3.5-4.9,4.6
	c-0.3,0.2-0.7,0.4-0.8,0.8c0,0.4,0.3,0.7,0.6,1c0.8,0.6,1.8,1,2.9,1.2c-0.3,0.9-0.7,1.7-1.2,2.5c-0.4,0.7-0.9,1.5-0.6,2.2
	c0.3,0.6,1,0.8,1.6,0.7c0.6-0.1,1.1-0.4,1.7-0.7c-0.4,0.9-0.8,1.9-1.2,2.8c1.3,0.2,2.6,0.2,3.9-0.2c0.7,3.4,1.2,9.7,2.1,12
	c2.4,0.1,3-0.2,4.3,0.2c1.6,0.5,0.9,3.4,3,2.6c1.1-0.4,2.7-4.4,3.1-5.5c2.4-7.1,3.3-14.8,2.5-22.3c1.5-1.6,3.3-2.8,5.3-3.7l-0.2,0.1
	c3.8-1.3,8.1-2.5,11.6-0.7c2.8,1.4,4.4,4.3,6.4,6.6c3.9,4.4,8.3,6.8,14.2,7.1c0.5,4.1,0.6,10.7,0.7,14.5l3.3-7.6l0,0
	c0.3-0.4,0.5-0.9,0.7-1.3l0.1-0.1v0c0.3-0.7,0.7-1.4,1.1-2.1l0,0c2,1.8,5.1-0.9,3.5-3.1c-0.3-0.4-0.7-0.8-1.1-1.2
	c0.9,0.9,2.3,1.3,3.6,1c1.2-0.4,2.2-1.6,2.1-2.9c-0.1-0.9-0.7-1.7-1.5-2c1.7,0.1,3.4-0.2,4.8-1C211,188.5,211.9,187.6,211.6,186.4z"
	/>
<path class="st3" d="M159.4,176.8c0,0-0.6,0.4-1.4,1.2c-0.8,0.9-1.7,2.4-2.1,4.5c-0.2,1-0.4,2.2-0.4,3.4c0,1.2,0.1,2.6,0.1,4
	c0.1,1.4,0.2,2.9,0.1,4.4c-0.1,0.8-0.2,1.6-0.3,2.3c-0.2,0.8-0.4,1.6-1,2.3c-0.5,0.5-1.2,0.8-1.9,0.6c-0.7-0.1-1.3-0.5-1.7-1
	c-0.9-1-1.1-2.3-1.3-3.4l0.3,0c-0.5,1-1,2-1.7,2.8c-0.7,0.8-1.7,1.3-2.6,1.4c-0.5,0-1,0-1.4-0.3c-0.4-0.2-0.7-0.6-0.9-0.9
	c-0.2-0.4-0.3-0.8-0.3-1.2c0-0.4,0.2-0.8,0.4-1l0.1,0.1c-1.1,1.2-2.2,1.8-2.9,2.1c-0.4,0.2-0.7,0.3-0.9,0.3
	c-0.2,0.1-0.3,0.1-0.3,0.1c0,0,0.1-0.1,0.3-0.1c0.2-0.1,0.5-0.2,0.9-0.4c0.7-0.4,1.8-1,2.8-2.2l0.1,0.1c-0.5,0.5-0.5,1.3-0.1,2
	c0.2,0.3,0.5,0.7,0.8,0.8c0.4,0.2,0.8,0.3,1.3,0.2c0.9-0.1,1.8-0.6,2.5-1.3c0.7-0.8,1.1-1.7,1.6-2.7l0.2-0.4l0.1,0.5
	c0.2,1.1,0.4,2.4,1.2,3.3c0.4,0.4,0.9,0.8,1.5,0.9c0.6,0.1,1.2-0.1,1.6-0.5c0.5-0.6,0.7-1.4,0.9-2.1c0.2-0.8,0.3-1.5,0.3-2.3
	c0.1-1.5,0-3,0-4.4c-0.1-1.4-0.1-2.7-0.1-4c0-1.3,0.2-2.4,0.4-3.5c0.5-2.1,1.4-3.6,2.2-4.5C158.8,177.1,159.4,176.8,159.4,176.8z"/>
<path class="st3" d="M201,190.4l-0.1,0.1c-0.1,0.1-0.2,0.1-0.3,0.2c-0.1,0.1-0.3,0.2-0.6,0.4c-0.2,0.1-0.5,0.3-0.8,0.4
	c-1.3,0.6-3.3,1.1-5.8,1c-2.5-0.2-5.5-1.1-8.1-3.1c-2.7-2-5-4.9-6.9-8.1c-1-1.6-1.7-3.3-2.6-4.9c-0.9-1.6-1.8-3-3-4.1
	c-1.1-1.1-2.5-2-3.9-2.4c-0.7-0.2-1.4-0.3-2-0.3c-0.7,0-1.3,0.2-1.9,0.3c-1.2,0.4-2.1,1-2.8,1.7c-0.7,0.7-1.2,1.4-1.5,2
	c-0.6,1.2-0.7,2-0.7,2l0-0.1c0-0.1,0-0.2,0.1-0.4c0.1-0.4,0.2-0.9,0.5-1.5c0.3-0.6,0.8-1.3,1.5-2c0.7-0.7,1.7-1.3,2.9-1.7
	c0.6-0.2,1.3-0.3,1.9-0.4c0.7,0,1.4,0,2.1,0.3c1.4,0.4,2.8,1.3,4,2.4c1.2,1.2,2.2,2.6,3,4.2c0.9,1.6,1.7,3.2,2.6,4.9
	c1.9,3.3,4.2,6.1,6.8,8.1c2.6,2,5.5,2.9,8,3.1c2.5,0.2,4.5-0.3,5.7-0.9C200.4,190.9,201,190.4,201,190.4z"/>
<path class="st3" d="M202.3,184.5c0,0-0.2,0.1-0.5,0.3c-0.3,0.2-0.8,0.4-1.4,0.7c-0.6,0.3-1.4,0.5-2.3,0.7c-0.9,0.2-1.9,0.3-2.9,0.4
	c-1,0-2-0.1-2.9-0.2c-0.9-0.2-1.7-0.4-2.3-0.6c-0.6-0.2-1.1-0.5-1.5-0.7c-0.3-0.2-0.5-0.3-0.5-0.3c0-0.1,0.8,0.3,2,0.8
	c0.6,0.2,1.4,0.4,2.3,0.5c0.9,0.1,1.8,0.2,2.9,0.2c1,0,2-0.2,2.9-0.3c0.9-0.2,1.6-0.4,2.3-0.6C201.5,184.9,202.3,184.4,202.3,184.5z
	"/>
<path class="st12" d="M167,612.8l-1.3,30.5c0,0,30.5,11.6,30.8,17.2l-59.2-0.5l0.1-47.6L167,612.8z"/>
<path class="st9" d="M147.4,640.6c-1.1,0.3-1.9,1.6-1.7,2.7c0.3,1.2,1.6,2,2.7,1.7c1.2-0.3,2.2-1.8,1.8-2.9c-0.4-1.1-2-2-3-1.5
	L147.4,640.6z"/>
<path class="st22" d="M196.5,660.6l-59.2-0.5l0.2-4.8l51.9,2l6.2,1.5c0.1,0.1,0.1,0.2,0.2,0.2C196.4,660,196.5,660.5,196.5,660.6z"
	/>
<path class="st2" d="M166.6,643c0,0.3-1.5,0.4-2.9,1.3c-1.5,0.9-2.2,2.1-2.5,2c-0.3-0.1,0.2-1.8,1.9-2.9
	C165,642.4,166.7,642.8,166.6,643z"/>
<path class="st2" d="M172.8,645.6c0.1,0.3-1.2,0.8-2.2,2c-1,1.2-1.3,2.5-1.6,2.5c-0.3,0-0.5-1.7,0.8-3.1
	C171.1,645.5,172.8,645.4,172.8,645.6z"/>
<path class="st2" d="M176.3,653.1c-0.3,0.1-0.7-1.4,0.1-3c0.7-1.6,2.1-2.2,2.2-2c0.2,0.2-0.7,1.1-1.3,2.4
	C176.7,651.8,176.6,653.1,176.3,653.1z"/>
<path class="st2" d="M166.2,636c-0.1,0.3-1.4-0.1-3.1,0c-1.6,0.1-2.9,0.6-3.1,0.4c-0.2-0.2,1.1-1.3,3-1.4
	C165,634.9,166.3,635.8,166.2,636z"/>
<path class="st2" d="M166.9,635.7c0.1,0,0.2,2.8,0.1,7.3l-0.2-0.4c3.5,1.3,8.1,3.1,12.9,5.4c5.3,2.5,10.1,5.1,13.1,7.6
	c1.5,1.2,2.7,2.4,3.2,3.3c0.6,1,0.5,1.7,0.4,1.6c0,0-0.1-0.6-0.8-1.4c-0.6-0.8-1.8-1.9-3.4-3c-3.1-2.2-7.8-4.7-13.1-7.2
	c-4.9-2.3-9.4-4.1-12.8-5.6l-0.3-0.1l0-0.3C166.5,638.5,166.8,635.7,166.9,635.7z"/>
<path class="st2" d="M128.7,400.3V428l10.9,88.2c0,0-3.5,41.4-5.6,64.7c-1.8,20.3,1.2,55.6,1.2,55.6h32.3l11.6-117.8l7.2-73.4
	l13-43.5L128.7,400.3z"/>
<path class="st12" d="M186,607.5l-8.5,29.3c0,0,26.9,18.4,25.9,24L146,646.5l11.3-46.2L186,607.5z"/>
<path class="st9" d="M160.4,629.9c-1.2,0-2.3,1.1-2.3,2.3c0,1.2,1,2.3,2.2,2.3c1.2,0,2.5-1.2,2.4-2.4c-0.1-1.2-1.4-2.4-2.6-2.1"/>
<path class="st22" d="M189.4,657.3L189.4,657.3L146,646.5L189.4,657.3z"/>
<path class="st22" d="M203.5,660.9l-7.3-1.8l-0.6-0.1l-6.2-1.5L146,646.5l1.3-4.6l54.6,15.5c0,0,0.2,0.1,0.4,0.4
	C203.2,659,203.6,660.1,203.5,660.9z"/>
<path class="st2" d="M178.5,636.8c-0.1,0.3-1.5,0.1-3.1,0.6c-1.6,0.5-2.6,1.6-2.9,1.4c-0.2-0.1,0.6-1.7,2.5-2.3
	C177.1,635.8,178.7,636.6,178.5,636.8z"/>
<path class="st2" d="M183.9,640.8c0,0.3-1.3,0.5-2.6,1.4c-1.3,0.9-1.8,2.1-2.1,2.1c-0.3,0-0.1-1.7,1.5-2.9
	C182.3,640.2,184,640.5,183.9,640.8z"/>
<path class="st2" d="M185.6,648.9c-0.3,0-0.3-1.5,0.8-2.9c1.1-1.4,2.6-1.6,2.6-1.4c0.1,0.3-1,0.9-1.8,2
	C186.2,647.7,185.9,648.9,185.6,648.9z"/>
<path class="st2" d="M179.7,629.9c-0.2,0.2-1.4-0.5-3-0.8c-1.6-0.3-3-0.1-3.1-0.4c-0.1-0.2,1.4-1,3.2-0.6
	C178.8,628.5,179.9,629.7,179.7,629.9z"/>
<path class="st2" d="M211.7,402.2l1.5,15l-1.8,109.1l-25.6,87.6l-6.2,21.2l-33-6.2l25.4-226.7L211.7,402.2z"/>
<path class="st3" d="M210.8,528.6c0,0,0,0.2-0.1,0.5c-0.1,0.4-0.2,0.9-0.4,1.5c-0.4,1.3-0.9,3.3-1.7,5.9c-1.5,5.1-3.6,12.6-6.3,22
	c-5.5,18.9-13.2,45.5-22.3,76.7l-0.1,0.3l-0.3,0c-10.4-2-21.5-4-33-6.2l-0.3-0.1l0.1-0.3c1.7-8.9,3.4-18.2,5.2-27.7
	c5.3-28.1,10.4-54.5,14.8-77.6l0,0.1c-5.5-34.3-9.8-61.7-12.3-77.4l0,0c-2.4-4.4-4.2-7.7-5.5-10c-0.6-1.1-1.1-2-1.4-2.6
	c-0.3-0.6-0.5-0.9-0.5-0.9s0.2,0.3,0.5,0.9c0.3,0.6,0.8,1.4,1.5,2.6c1.3,2.3,3.2,5.6,5.6,10l0,0l0,0c2.6,15.7,7,43,12.6,77.3l0,0
	l0,0c-4.4,23.1-9.4,49.6-14.7,77.7c-1.8,9.5-3.6,18.8-5.2,27.7l-0.2-0.4c11.5,2.2,22.6,4.3,33,6.2l-0.3,0.2
	c9.1-31.2,16.9-57.8,22.5-76.7c2.8-9.4,5-16.9,6.5-22c0.8-2.5,1.3-4.5,1.8-5.8c0.2-0.6,0.4-1.1,0.5-1.5
	C210.7,528.8,210.8,528.6,210.8,528.6z"/>
<path class="st3" d="M205.8,411.2c0.1,0-0.5,1.1-1.8,2.6c-1.3,1.5-3.3,3.4-5.9,5c-2.6,1.6-5.2,2.5-7.1,2.9c-1.9,0.4-3.2,0.5-3.2,0.4
	c-0.1-0.2,4.9-0.7,10-3.8C203,415.2,205.7,411,205.8,411.2z"/>
<path class="st20" d="M276.1,246.6c0.4-0.6,0.3-1.5-0.3-1.9c-0.2-0.1-0.3-0.2-0.5-0.1c-0.7,0.1-2.4,1.4-3.7,1.4
	c-1.3,0-3.6-0.4-5,0.9c-1.3,1.2-4.6,8.1-5,9.5c-0.4,1.5-1.9,14.5-1.9,14.5L276.1,246.6z"/>
<path class="st2" d="M281.8,244.9c-0.1,0.1-16,7.1-23,10.2c-1.6,0.7-1.9,2.7-0.7,3.9c0.8,0.7,1.9,0.9,2.8,0.4l22.9-11.1l1.9-2.9
	L281.8,244.9z"/>
<path class="st20" d="M264.9,259.2l5.1-3.7l6.7-9.7c0,0,2.7-1.6,4.2-0.6s1.9,2.2,1.2,3.5c0,0,3.8,0.9,4.1,2.2
	c0.3,1.3-0.5,4.4-0.5,4.4s0.6,2.4,0,3.6c-0.5,1.3-0.5,2.3-0.5,2.3s2.5,3,1.4,6.1c-1.1,3.1-5.5,9.9-7.9,11.7
	c-2.4,1.8-6.9,3.9-6.9,3.9l-2.9,6.1l-12.2-11L264.9,259.2z"/>
<path class="st21" d="M276.5,246.2c0,0-0.1,0.2-0.3,0.5c-0.2,0.4-0.5,0.8-0.9,1.4c-0.8,1.2-1.9,2.7-3.1,4.5
	c-0.6,0.9-1.2,1.7-1.7,2.5c-0.3,0.4-0.6,0.7-0.9,1c-0.3,0.3-0.7,0.5-1,0.6c-0.6,0.3-1.2,0.4-1.6,0.5c-0.4,0.1-0.6,0.1-0.6,0.1
	c0,0,0.2-0.1,0.6-0.2c0.4-0.1,0.9-0.3,1.5-0.6c1.3-0.6,2.2-2.4,3.4-4.1c1.2-1.7,2.3-3.3,3.1-4.5c0.4-0.5,0.7-1,1-1.3
	C276.3,246.3,276.5,246.1,276.5,246.2z"/>
<path class="st21" d="M278,256.3c-0.1,0,0.8-1.7,2-3.8c1.1-2.1,2.1-3.7,2.2-3.7c0.1,0-0.8,1.7-2,3.8
	C279.1,254.7,278.1,256.3,278,256.3z"/>
<path class="st21" d="M279.6,262.4c0,0-0.1-0.2-0.2-0.5c-0.1-0.3-0.4-0.7-0.8-1c-0.4-0.3-0.9-0.4-1.2-0.4c-0.3,0-0.6,0-0.6,0
	c0,0,0.2-0.1,0.6-0.2c0.4,0,0.9,0,1.4,0.4c0.5,0.3,0.7,0.8,0.8,1.2C279.7,262.1,279.7,262.4,279.6,262.4z"/>
<path class="st21" d="M285.3,264.2c0,0-0.2-0.1-0.5-0.3c-0.3-0.2-0.7-0.5-1.2-0.8c-0.5-0.2-1-0.3-1.3-0.2c-0.3,0.1-0.5,0.3-0.5,0.3
	c0,0,0.1-0.3,0.5-0.4c0.4-0.1,1-0.1,1.5,0.2c0.5,0.2,0.9,0.6,1.2,0.9C285.2,264,285.3,264.2,285.3,264.2z"/>
<path class="st21" d="M283.1,259.1c-0.1,0,0.4-0.9,1.1-2c0.7-1.1,1.3-1.9,1.3-1.9c0.1,0-0.4,0.9-1.1,2
	C283.8,258.3,283.2,259.1,283.1,259.1z"/>
<path class="st21" d="M273.4,259.5c0,0,0-0.2-0.1-0.5c-0.1-0.3-0.3-0.7-0.7-1c-0.4-0.3-0.8-0.4-1.1-0.4c-0.3,0-0.5,0.1-0.5,0
	c0,0,0.2-0.2,0.5-0.2c0.3-0.1,0.9,0,1.3,0.3c0.4,0.3,0.7,0.8,0.7,1.1C273.5,259.3,273.4,259.5,273.4,259.5z"/>
<path class="st3" d="M260.1,259.5c0,0,0.2-0.2,0.4-0.6c0.2-0.4,0.4-1.1,0.1-1.8c-0.3-0.7-0.8-1.1-1.3-1.3c-0.4-0.2-0.8-0.2-0.8-0.2
	c0,0,0.3-0.1,0.8,0.1c0.5,0.1,1.1,0.6,1.4,1.3c0.3,0.8,0.1,1.5-0.2,1.9C260.4,259.4,260.1,259.5,260.1,259.5z"/>
<path class="st20" d="M217.3,290.2l19.3,16.5l23.7-35.4l15.4,9.1c0,0-23.1,53.1-29.3,57.8c-6.2,4.7-11.5,3.5-19.6-0.2
	c-8-3.7-36.7-32.6-36.7-32.6L217.3,290.2z"/>
<path class="st21" d="M237.3,321.4c-0.2,0,0.3-3.4,0.1-7.5c-0.2-4.1-1.1-7.4-0.9-7.4c0.1-0.1,1.3,3.2,1.5,7.4
	C238.3,318.1,237.4,321.5,237.3,321.4z"/>
<path class="st12" d="M138.6,263.2c0,0,16.4,0.2,16.6,20.7c0.2,20.4-4.2,47.8-4.2,47.8l-41.8-7.4c0,0,5.2-38,9.6-49
	C123.3,264.3,131.9,261.4,138.6,263.2z"/>
<path class="st8" d="M146.4,248.5l-0.5,3.3c0,0-22.4,14.8-23.6,18.6c-2,5.9,2.3,55.9,4.2,70c1.9,14.2,2.3,45.4,2.3,45.4
	c-1.4,3.7-2.9,7-3.4,12.1c-0.5,5.1,3.4,9.7,3.4,9.7c24,7.8,53.3,1.8,85-5.4l-0.3-9l-10.4-97.6c0,0,3-25.4-9.4-32.7
	c-1.4-0.8-12.2-6.9-12.2-6.9L146.4,248.5z"/>
<path class="st12" d="M208.5,347.1c0,0-11.2-10-18.8-26.1c-7.6-16.1-7.4-30.1-7.4-30.1l22.8,27L208.5,347.1z"/>
<path class="st12" d="M201.1,266.2c-3.9-3.2-11.2-4.9-15.4-2c-1.8,1.3-4,3.2-5,6.2c-3.6,10.4-1.4,21.5,1.4,29.8
	c2.8,8.3,16.6,24.2,16.6,24.2l33.9-20.6c0,0-22.7-27.5-25.1-30.4C206.3,272,203.3,268,201.1,266.2z"/>
<path class="st2" d="M201.1,266.2c0,0,0.3,0.2,0.7,0.6c0.5,0.4,1.1,1,1.9,1.9c1.6,1.7,3.6,4.4,6.4,7.7c5.5,6.7,13.4,16.1,22.7,27.3
	l0.2,0.2l-0.3,0.2c-9.6,5.8-20.5,12.5-32.1,19.5c-0.6,0.4-1.3,0.8-1.9,1.1l-0.2,0.1l-0.2-0.2c-3.8-4.5-7.3-9-10.5-13.5
	c-1.6-2.3-3.1-4.5-4.3-6.9c-0.6-1.2-1.2-2.4-1.7-3.6c-0.5-1.2-0.8-2.5-1.2-3.7c-2.8-9.7-2.9-19.3-0.3-26.6c0.6-1.8,1.7-3.4,3-4.6
	c1.3-1.2,2.6-2.2,4.1-2.7c1.5-0.5,2.9-0.6,4.2-0.5c1.3,0.1,2.5,0.3,3.5,0.6c2.1,0.6,3.5,1.4,4.5,2
	C200.7,265.8,201.1,266.2,201.1,266.2c0,0-0.5-0.4-1.4-0.9c-1-0.6-2.4-1.3-4.5-1.9c-1-0.3-2.2-0.5-3.5-0.5c-1.3-0.1-2.7,0.1-4.1,0.5
	c-1.4,0.5-2.7,1.5-3.9,2.6c-1.2,1.2-2.3,2.7-2.8,4.5c-2.5,7.2-2.4,16.6,0.5,26.3c0.4,1.2,0.7,2.4,1.2,3.6c0.4,1.2,1,2.4,1.6,3.5
	c1.3,2.3,2.7,4.6,4.3,6.8c3.2,4.5,6.7,9,10.5,13.5l-0.4-0.1c0.6-0.4,1.2-0.7,1.9-1.1c11.5-7,22.5-13.6,32.1-19.4l-0.1,0.4
	c-9.2-11.2-17-20.7-22.5-27.4c-2.8-3.3-4.8-6.1-6.3-7.8c-0.8-0.9-1.4-1.5-1.8-1.9C201.4,266.4,201.1,266.2,201.1,266.2z"/>
<path class="st2" d="M121.8,281.8c0,0,0.1,0.2,0.1,0.6c0,0.5,0.1,1,0.2,1.7c0.1,1.6,0.3,3.7,0.5,6.3c0.3,5.4,0.8,12.7,1.3,20.7
	c0.5,8.1,1.1,15.4,1.6,20.7c0.2,2.6,0.4,4.7,0.6,6.3c0.1,0.7,0.1,1.2,0.1,1.7c0,0.4,0,0.6,0,0.6c0,0-0.1-0.2-0.1-0.6
	c-0.1-0.5-0.2-1-0.3-1.7c-0.2-1.5-0.5-3.6-0.8-6.2c-0.6-5.3-1.2-12.6-1.7-20.7c-0.5-8.1-0.9-15.4-1.1-20.7c-0.1-2.6-0.2-4.7-0.3-6.3
	c0-0.7,0-1.2,0-1.7C121.8,282,121.8,281.8,121.8,281.8z"/>
<path class="st2" d="M196.8,400.3c0,0-0.2,0.1-0.6,0.2c-0.5,0.1-1.1,0.3-1.8,0.4c-0.8,0.2-1.8,0.4-2.9,0.6c-1.1,0.2-2.4,0.5-3.9,0.7
	c-2.9,0.5-6.3,0.9-10.2,1.3c-3.9,0.3-8.1,0.6-12.6,0.6c-4.5,0-8.7-0.1-12.6-0.4c-3.9-0.3-7.3-0.7-10.2-1.1c-1.4-0.2-2.8-0.4-3.9-0.7
	c-1.1-0.2-2.1-0.4-2.9-0.6c-0.7-0.2-1.3-0.3-1.8-0.4c-0.4-0.1-0.6-0.2-0.6-0.2c0,0,0.2,0,0.7,0.1c0.5,0.1,1.1,0.2,1.9,0.3
	c0.8,0.2,1.8,0.3,2.9,0.5c1.1,0.2,2.4,0.4,3.9,0.6c2.9,0.4,6.3,0.7,10.2,1c3.9,0.2,8.1,0.4,12.5,0.3c4.4-0.1,8.7-0.3,12.5-0.6
	c3.8-0.3,7.3-0.7,10.2-1.1c1.4-0.2,2.7-0.4,3.9-0.6c1.1-0.2,2.1-0.3,2.9-0.5c0.7-0.1,1.4-0.2,1.9-0.3
	C196.6,400.3,196.8,400.3,196.8,400.3z"/>
<path class="st2" d="M645.2,377.3c3.3,5.6,10.9,27.2,13.9,38.2c13.5,50.3,24.8,117.9,28.6,131.7c5,18.4,16.3,59.9,22.1,87.6
	l-27.6,12c0,0-36.1-97.3-46-121.2c-10.2-24.8-27.2-71.5-27.2-71.5l-9.8,185.4l-26.4,0.8c0,0-9-52.2-12.6-83.5
	c-3.6-31.2-4-95.5-4-111.8c0-19.9,8.6-64.5,8.6-64.5s10.3,7.7,29.6,4.8c15.4-2.4,47.3-14.2,47.3-14.2L645.2,377.3z"/>
<path class="st3" d="M591.5,391.7c0,0,0,0.8,0.2,2.1c0.1,1.4,0.4,3.3,0.7,5.8c0.6,4.9,1.7,11.6,3,18.9c1.3,7.4,2.7,14,3.8,18.8
	c0.5,2.4,1,4.3,1.3,5.7c0.3,1.3,0.5,2.1,0.6,2.1c0,0-0.1-0.8-0.3-2.1c-0.3-1.5-0.7-3.4-1.1-5.7c-1-4.8-2.3-11.5-3.6-18.8
	c-1.3-7.4-2.4-14-3.2-18.9c-0.4-2.3-0.7-4.3-0.9-5.7C591.7,392.5,591.5,391.7,591.5,391.7z"/>
<path class="st3" d="M600.9,391.3c0,0,0-0.3-0.5-0.5c-0.5-0.2-1.2-0.3-2-0.1c-0.4,0.1-0.9,0.2-1.3,0.5c-0.5,0.3-0.8,0.9-0.9,1.5
	c-0.2,1.2,0.3,2.6,1.5,3.4c1.1,0.8,2.6,0.8,3.7,0.2c0.5-0.3,0.9-0.9,1-1.4c0.2-0.5,0.2-1,0.1-1.4c-0.1-0.9-0.5-1.5-0.9-1.8
	C601.2,391.3,600.9,391.3,600.9,391.3c0,0.1,0.2,0.2,0.5,0.5c0.3,0.3,0.6,0.9,0.6,1.7c0,0.7-0.2,1.7-1,2.2c-0.8,0.5-2,0.4-3-0.2
	c-0.9-0.6-1.4-1.7-1.3-2.7c0.1-0.5,0.3-0.9,0.6-1.1c0.3-0.3,0.7-0.4,1.1-0.5c0.7-0.2,1.4-0.2,1.8-0.2
	C600.7,391.1,600.9,391.4,600.9,391.3z"/>
<path class="st3" d="M584,438.5c0,0.1,1.2,0.9,3.2,2.2c2,1.3,4.7,3.1,7.7,5.3c2.9,2.2,5.5,4.2,7.3,5.8c1.8,1.5,3,2.5,3,2.4
	c0.1-0.1-1-1.1-2.7-2.8c-1.8-1.6-4.3-3.8-7.2-5.9c-2.9-2.2-5.7-4-7.8-5.2C585.4,439,584.1,438.4,584,438.5z"/>
<path class="st3" d="M650.9,538.7c0,0,0.4,0.1,1.1,0c0.7,0,1.8-0.1,3.1-0.2c2.6-0.3,6.2-0.9,10-2.1c3.8-1.2,7.1-2.7,9.5-4
	c1.2-0.6,2.1-1.2,2.7-1.6c0.6-0.4,0.9-0.6,0.9-0.7c-0.1-0.1-1.5,0.7-3.8,1.8c-2.3,1.1-5.7,2.5-9.4,3.7c-3.8,1.2-7.3,1.9-9.9,2.3
	C652.5,538.5,650.9,538.6,650.9,538.7z"/>
<path class="st3" d="M655.4,535.9c0,0.1,1.1-0.2,2.7-0.7c1.6-0.5,3.9-1.4,6.3-2.5c2.4-1.1,4.5-2.2,6-3.1c1.5-0.9,2.4-1.5,2.3-1.5
	c-0.1-0.2-3.8,1.8-8.6,4C659.3,534.3,655.3,535.7,655.4,535.9z"/>
<path class="st3" d="M605.3,390l2.5-2.4c2.2-2.1,1-7-1.3-9.4l-86.5-89.5L508.3,300l86.4,89.3C597.7,392.2,602.5,392.7,605.3,390z"/>
<path class="st18" d="M531,305.4l12.7,13.1l0.5,11.4l-14.8,3.4h-0.8l-1-7.4l-8.5-11.3L531,305.4z"/>
<path class="st18" d="M525.6,299.6c-0.4-0.4-1.2-0.6-1.7-0.5c-0.5,0.2-1,0.6-1.4,1c-2.8,2.9-4.5,6.8-4.5,10.9c0,1.7,0.5,3.7,2,4.5
	l1.7-1c0.5-0.7,2.1-1.9,2.4-2.7c0.9-3.6-0.4-3.4,1.9-9.7C526.1,301.4,526.4,300.4,525.6,299.6z"/>
<path class="st18" d="M525.1,304.7c0.5-0.9,1-1.7,1.7-2.3c0.7-0.6,1.5-0.9,2.3-0.7c1.2,0.4,1.8,2.1,1.6,3.7
	c-0.1,1.6-0.8,3.1-1.5,4.6c-1.4,3.1-2.9,6.2-4.3,9.3l-0.8-0.6c-0.6,0.6-1.5,0.3-1.8-0.4c-0.4-0.7-0.4-1.6-0.4-2.5
	C522.1,311.9,523.3,308,525.1,304.7z"/>
<path class="st18" d="M527.2,313.9c1-2.2,2.6-4,4.3-5.7c0.6-0.6,1.2-1.2,2-1.5c0.8-0.3,1.8-0.1,2.2,0.7c0.4,0.7,0,1.6-0.3,2.3
	c-2.1,4.5-4.6,8.8-7.4,12.9l-2.6-2.6C524.4,317.9,526.3,316.1,527.2,313.9z"/>
<path class="st18" d="M596.3,342.5l-2.3-0.5l-12.3-10.5l-6.7-5.6c-0.6-0.5-1.2-0.8-2-0.9l-6.7-1.1c0,0-1,2.9,2,4.6l3.6,1.9l3.3,3.9
	l-0.4,0.9c0,0-21.9,3.4-23.2,5.1c-1.4,1.7,0,3.2,0.6,3.5c0.6,0.3,1.7,0.2,1.7,0.2s-1.1,2.6,2.1,4.7c0,0-2.4,3.2,1.8,4.7
	c0,0,1.2,2.4,3.6,3.2c2.4,0.8,15.5,2.3,16.8,2.3c1.4,0,15.7,0,15.7,0l3.1,0.5L596.3,342.5z"/>
<path class="st13" d="M629,275c0,0,9.2,1.6,16.2,15.4c3.9,7.6,22,53.4,23,57.4c4.6,17.2-4.3,28.2-12.8,29
	c-9.4,0.8-58.1-14.9-58.1-14.9l-1.1-20.8l44.4,6.7l-21.3-41.4C619.3,306.3,618.5,278.7,629,275z"/>
<path class="st2" d="M655.6,359.1c0.1,0-0.2-1.2-1.2-2.8c-1-1.6-2.7-3.6-5-5.3c-2.3-1.7-4.8-2.6-6.6-3c-1.8-0.4-3-0.3-3-0.2
	c0,0.1,1.1,0.2,2.9,0.7c1.8,0.5,4.1,1.5,6.4,3.1c2.3,1.6,4,3.5,5,5C655,358.1,655.5,359.2,655.6,359.1z"/>
<path class="st2" d="M643.2,374.9c0,0-0.1,0-0.2,0c-0.2,0-0.4-0.1-0.7-0.1c-0.6-0.1-1.4-0.4-2.6-0.7c-2.2-0.6-5.5-1.6-9.5-2.9
	c-8.1-2.6-19.6-6.4-33.1-11l-0.2-0.1l0-0.2c-0.3-6-0.7-12.5-1-19.3l0-0.4l0.4,0.1c3.5,0.6,7.2,1.2,10.9,1.8c12,2,23.5,3.8,33.5,5.5
	l-0.3,0.5c-6-11.8-11.1-21.8-14.8-28.9c-1.8-3.5-3.2-6.3-4.1-8.2c-0.5-0.9-0.8-1.6-1.1-2.2c-0.2-0.5-0.4-0.8-0.3-0.8
	c0,0,0.2,0.2,0.4,0.7c0.3,0.5,0.7,1.2,1.2,2.1c1,1.9,2.5,4.7,4.3,8.1c3.7,7,8.8,17,15,28.8l0.3,0.6l-0.6-0.1
	c-10.1-1.6-21.5-3.5-33.5-5.4c-3.7-0.6-7.4-1.2-10.9-1.8l0.4-0.4c0.3,6.8,0.7,13.3,1,19.3l-0.2-0.3c13.5,4.6,24.9,8.4,33.1,11.2
	c4,1.3,7.2,2.4,9.5,3.1c1.1,0.3,1.9,0.6,2.5,0.8c0.3,0.1,0.5,0.1,0.7,0.2C643.1,374.9,643.2,374.9,643.2,374.9z"/>
<path class="st2" d="M630.9,275.8c0.1,0.1-1.3,0.9-3.1,2.5c-1.8,1.6-4.1,4.1-5.9,7.3c-1.8,3.3-2.6,6.5-2.9,8.9
	c-0.3,2.4-0.2,3.9-0.4,3.9c0,0-0.1-0.4-0.2-1.1c-0.1-0.7-0.1-1.7,0-2.9c0.1-1.2,0.4-2.7,0.8-4.3c0.5-1.6,1.1-3.3,2-4.9
	c0.9-1.7,2-3.1,3-4.4c1.1-1.2,2.2-2.2,3.2-3c1-0.8,1.8-1.3,2.4-1.6C630.6,275.9,630.9,275.8,630.9,275.8z"/>
<path class="st17" d="M67,512c-10.4-15.8-10-39,2.4-53.3c3.9-4.4,9.2-8.3,15.1-7.8s10.8,5.6,12.7,11.4c1.9,5.7,1.2,11.9,0.1,17.8
	c-1.5,8.3-4.1,16.8-9.8,22.9C81.7,509.2,74.4,516,67,512"/>
<path class="st23" d="M71.6,587.6c-1.9-4.6-2.2-9.7-1-14.5c1.2-4.8,3.9-9.1,7.6-12.3c2.4-1.9,5.5-3.4,8.5-2.7c3,0.7,5.1,3.9,5.5,7
	c0.2,3.1-0.3,6.3-1.5,9.2c-1.5,4.1-3.6,8.3-7.1,10.9C80,587.9,75.1,590.4,71.6,587.6"/>
<path class="st17" d="M46.6,582.2c1.3-7.1,0.3-14.4-2.8-20.8c-3.1-6.5-8.2-11.8-14.5-15.3c-3.9-2-8.8-3.3-12.8-1.3s-6,7-5.7,11.5
	c0.3,4.5,2.5,8.7,4.9,12.6c3.4,5.4,7.5,10.7,13.3,13.4C34.8,585,42.5,587.1,46.6,582.2z"/>
<path class="st23" d="M48.4,544.3c5-16-3.4-35.4-17.5-44.5c-4.4-2.8-9.9-4.8-14.7-3c-4.9,1.9-7.8,7.4-8,12.7
	c-0.1,5.3,1.9,10.4,4.3,15.2c3.3,6.7,7.5,13.3,13.9,17.1C32.8,545.7,43.1,549.5,48.4,544.3"/>
<path class="st24" d="M58.3,622.4c-0.1-0.2-0.1-0.5-0.2-0.8c-0.1-0.6-0.2-1.3-0.3-2.2c-0.1-0.5-0.1-1-0.2-1.6
	c-0.1-0.6-0.2-1.2-0.4-1.9c-0.3-1.3-0.5-2.9-1-4.6c-0.2-0.8-0.4-1.7-0.6-2.7c-0.2-1-0.6-1.9-0.8-2.8c-0.5-2-1.4-4-2.1-6.2
	c-1.8-4.7-3.8-9.3-6.2-13.7c-2.4-4.4-5.1-8.6-8-12.7c-1.4-1.8-2.7-3.6-4.1-5.2l-2-2.2l-1.9-2c-1.2-1.3-2.3-2.4-3.3-3.4L26,559
	l-1.2-1.1l-1.7-1.5c-0.4-0.4-0.6-0.5-0.6-0.6c0.2,0.1,0.4,0.3,0.6,0.5l1.8,1.4l1.3,1l1.4,1.3c1,0.9,2.2,2,3.4,3.3l1.9,2l2,2.2
	c1.4,1.5,2.7,3.3,4.1,5.1c3,4.1,5.7,8.3,8.1,12.8c2.4,4.5,4.4,9.1,6.2,13.8c0.7,2.2,1.5,4.3,2,6.3c0.3,1,0.5,2,0.8,2.9
	c0.3,0.9,0.4,1.8,0.6,2.7c0.4,1.7,0.7,3.3,0.9,4.7c0.1,0.7,0.2,1.3,0.3,1.9c0.1,0.6,0.1,1.1,0.2,1.6c0.1,0.9,0.1,1.7,0.2,2.3
	C58.4,621.8,58.4,622.1,58.3,622.4z"/>
<path class="st24" d="M58,625.2c0-0.1,0-0.2,0-0.3c0-0.3,0-0.6,0-0.9c0.1-0.9,0.2-2.1,0.3-3.6c0.1-0.8,0.2-1.6,0.3-2.6
	c0.1-0.9,0.1-2,0.2-3.1c0.1-2.2,0.3-4.7,0.2-7.5c0-1.3,0-2.8,0-4.3s-0.2-3.1-0.2-4.7c-0.1-3.3-0.6-6.7-0.9-10.3
	c-1.1-7.9-2.7-15.6-4.9-23.2c-2.3-7.6-5.2-15-8.6-22.2c-1.7-3.2-3.2-6.4-4.9-9.2c-0.8-1.3-1.6-2.8-2.4-4l-2.3-3.6
	c-1.4-2.4-3-4.3-4.3-6.1c-0.6-0.9-1.2-1.7-1.8-2.5l-1.6-2.1l-2.3-2.8l-0.6-0.7c-0.1-0.1-0.1-0.2-0.2-0.3c0,0,0.1,0.1,0.2,0.2
	l0.6,0.7l2.3,2.7l1.7,2c0.6,0.7,1.2,1.6,1.9,2.5c1.4,1.8,2.9,3.7,4.4,6.1l2.4,3.6c0.8,1.3,1.6,2.7,2.4,4c1.7,2.8,3.2,5.9,4.9,9.2
	c3.4,7.2,6.3,14.6,8.7,22.2c2.2,7.7,3.8,15.5,4.9,23.4c0.4,3.7,0.8,7.1,0.9,10.4c0.1,1.6,0.2,3.2,0.2,4.7c0,1.5,0,3,0,4.4
	c0,2.8-0.2,5.3-0.3,7.5c-0.1,1.1-0.1,2.1-0.2,3.1c-0.1,0.9-0.2,1.8-0.3,2.6c-0.2,1.5-0.4,2.7-0.5,3.5c0,0.4-0.1,0.7-0.1,0.9
	C58,625.2,58,625.2,58,625.2z"/>
<path class="st24" d="M85,470c0,0,0,0.1-0.1,0.3l-0.4,0.8l-1.8,3.2c-0.4,0.7-0.8,1.4-1.4,2.3l-1.4,2.8l-1.6,3.2
	c-0.5,1.1-1.1,2.4-1.6,3.7c-0.6,1.3-1.2,2.6-1.8,4l-1.7,4.4c-0.3,0.8-0.6,1.6-0.9,2.3c-0.3,0.8-0.6,1.6-0.8,2.5
	c-0.6,1.7-1.1,3.4-1.7,5.1c-2.2,7.1-4.3,15-6,23.4c-1.8,8.4-2.9,16.5-3.8,23.9c-0.9,7.4-1.4,14.1-1.5,19.7c-0.1,2.8-0.2,5.4-0.2,7.6
	c0,2.2,0,4.2,0,5.7c0,1.6,0,2.7,0,3.6v0.9c0,0.1,0,0.2,0,0.3c0-0.1,0-0.2,0-0.3c0-0.2,0-0.6,0-0.9c0-0.9-0.1-2.1-0.2-3.6
	c-0.1-1.5-0.1-3.5-0.1-5.7c0-2.2,0-4.8,0.1-7.6c0.1-5.6,0.6-12.3,1.4-19.7c0.8-7.4,2-15.5,3.7-23.9c1.7-8.4,3.9-16.3,6.1-23.4
	c0.6-1.8,1.2-3.5,1.8-5.1c0.3-0.8,0.6-1.7,0.9-2.5l0.9-2.3l1.8-4.5c0.6-1.4,1.2-2.7,1.8-4c0.6-1.3,1.1-2.5,1.7-3.7l1.6-3.2
	c0.5-1,1-1.9,1.4-2.7c0.4-0.8,0.9-1.6,1.4-2.3l1.9-3.1l0.5-0.8C84.9,470.1,85,470,85,470z"/>
<path class="st24" d="M81.4,567.1c-0.3,0.7-0.7,1.3-1.1,1.9c-0.8,1.2-1.8,3-3,5.2c-1.2,2.2-2.6,5-3.9,8.1c-1.4,3.1-2.7,6.6-3.8,10.3
	c-1.1,3.7-2,7.3-2.7,10.6c-0.7,3.3-1.1,6.3-1.4,8.8c-0.3,2.5-0.4,4.6-0.5,6c0,0.7-0.1,1.5-0.2,2.2c-0.1-0.7-0.1-1.5-0.1-2.2
	c0-1.4,0-3.5,0.3-6.1c0.2-3,0.6-6,1.2-8.9c0.7-3.6,1.7-7.2,2.8-10.8c1.1-3.5,2.4-6.9,3.9-10.3c1.2-2.7,2.6-5.4,4.1-8
	c1.4-2.2,2.4-4,3.2-5.2C80.5,568.3,81,567.7,81.4,567.1z"/>
<path class="st25" d="M38,615.3h45.5L78,661.7H43.7L38,615.3z"/>
<path class="st24" d="M39.6,656.7l3.9,5H78l4-4.8L39.6,656.7z"/>
<path class="st26" d="M81.7,628.9c0,0.2-9.5,0.4-21.1,0.4s-21.1-0.2-21.1-0.4c0-0.2,9.5-0.3,21.1-0.3S81.7,628.7,81.7,628.9z"/>
<path class="st26" d="M81.7,632c0,0.2-9.5,0.3-21.1,0.3s-21.1-0.1-21.1-0.3c0-0.2,9.5-0.3,21.1-0.3S81.7,631.8,81.7,632z"/>
<path class="st26" d="M81.2,635c0,0.2-9.1,0.3-20.4,0.3c-11.2,0-20.4-0.2-20.4-0.3s9.1-0.3,20.4-0.3C72.1,634.6,81.2,634.8,81.2,635
	z"/>
<path class="st24" d="M44.9,515.2c0,0.1,0,0.3,0,0.4c0,0.3,0,0.8-0.1,1.3c-0.1,1.2-0.3,2.7-0.5,4.6c-0.4,3.9-1,9.3-1.7,15.2
	c0,0.2,0,0.5-0.1,0.7v0.2h-0.2c-5.9,0.1-11.1,0.1-14.9,0.2h-5.8c-0.1,0-0.3,0-0.4,0c0.1,0,0.3,0,0.4,0l1.2-0.1l4.5-0.1
	c3.8-0.1,9.1-0.2,14.9-0.3l-0.2,0.2c0-0.2,0-0.4,0.1-0.7c0.7-5.9,1.4-11.3,1.9-15.2c0.3-1.9,0.5-3.5,0.6-4.6c0-0.5,0.1-0.9,0.2-1.2
	C44.8,515.6,44.9,515.4,44.9,515.2z"/>
<path class="st24" d="M34.6,501.3c0,0.2,0,0.3,0,0.5c0,0.4,0,0.8,0,1.3c0,1.2,0,2.8,0,4.8c0,4-0.2,9.6-0.3,15.8c0,0.3,0,0.5,0,0.7
	v0.2H34c-5.1-0.4-10.2-0.5-15.3-0.4c-1.9,0-3.5,0.1-4.6,0.2h-1.3h-0.4c0.1,0,0.3-0.1,0.4-0.1l1.3-0.1c1.1-0.1,2.7-0.2,4.6-0.3
	c5.1-0.3,10.3-0.2,15.4,0.2l-0.2,0.2c0-0.2,0-0.5,0-0.7c0.1-6.2,0.3-11.7,0.5-15.8c0.1-2,0.1-3.6,0.2-4.8c0-0.5,0-0.9,0-1.3
	C34.5,501.6,34.5,501.5,34.6,501.3z"/>
<path class="st24" d="M22.5,496.6c0.1,0.4,0.2,0.9,0.3,1.3c0.2,0.9,0.4,2.2,0.7,3.7c0.6,3.1,1.5,7.3,2.8,12l0.1,0.5l-0.5-0.2
	l-0.6-0.2c-3.8-1.8-7.9-3-12.2-3.5c-1.6-0.2-2.9-0.3-3.9-0.3c-0.5,0-0.9,0-1.4-0.1c0,0,0.1,0,0.4,0c0.2,0,0.6,0,1.1,0
	c1.3,0,2.6,0,3.9,0.2c4.3,0.4,8.4,1.6,12.3,3.5l0.6,0.3l-0.3,0.3c-1.1-4-2-8-2.7-12.1c-0.3-1.6-0.4-2.8-0.5-3.7
	C22.5,497.6,22.4,497.1,22.5,496.6z"/>
<path class="st24" d="M86.8,581.2c0,0.1-1.4,0-3.4-0.1c-2.8-0.1-5.5,0-8.3,0.3c-0.7,0-1.4,0.1-1.9,0.2h-0.2v-0.2
	c-0.5-2.7-0.9-5.2-1.2-6.9c-0.2-0.9-0.3-1.9-0.4-2.8c0.3,0.9,0.5,1.8,0.6,2.7c0.4,1.7,0.8,4.1,1.4,6.9l-0.3-0.2
	c0.6-0.1,1.3-0.2,1.9-0.2c2.8-0.3,5.6-0.3,8.3-0.1c1.1,0.1,1.9,0.2,2.5,0.3C86.2,581,86.5,581.1,86.8,581.2z"/>
<path class="st24" d="M91.1,572.7c0,0.1-1.4-0.2-3.3-0.5c-2.7-0.3-5.4-0.3-8.1-0.1l-1.4,0.2H78v-0.2c-0.3-2.8-0.5-5.4-0.7-7.1
	c-0.1-0.9-0.2-1.9-0.2-2.8c0.2,0.9,0.4,1.9,0.4,2.9c0.2,1.8,0.5,4.3,0.8,7.1l-0.3-0.2c0.5-0.1,0.9-0.1,1.4-0.2
	c2.7-0.3,5.5-0.2,8.2,0.2c0.8,0.1,1.6,0.3,2.4,0.5C90.5,572.5,90.8,572.6,91.1,572.7z"/>
<path class="st24" d="M94.2,491.9c-0.1,0.1-0.3,0.2-0.4,0.2l-1.4,0.6l-4.9,2.1l-16.3,6.7l-0.9,0.4L70,502l-0.1-0.2l-6.9-15.5l-2-4.7
	l-0.5-1.3c-0.1-0.1-0.1-0.3-0.2-0.5c0.1,0.1,0.2,0.3,0.2,0.4c0.2,0.3,0.4,0.7,0.6,1.3c0.5,1.1,1.3,2.7,2.2,4.6l7,15.5l-0.3-0.1
	l0.9-0.4l16.4-6.6l5-2l1.4-0.5L94.2,491.9z"/>
<path class="st24" d="M98.1,472.3c0,0-0.1,0.1-0.4,0.3l-1.2,0.8l-4.4,2.8l-14.9,9l-0.1,0.2L77,485c-0.1-0.2-0.2-0.5-0.3-0.7
	l-6.2-16.7c-0.8-2.1-1.4-3.8-1.8-5.1l-0.5-1.3c-0.1-0.3-0.2-0.5-0.1-0.5c0.1,0.1,0.2,0.3,0.2,0.5c0.1,0.4,0.3,0.8,0.6,1.3
	c0.5,1.3,1.2,3,2,5c1.6,4.3,3.9,10.2,6.4,16.7l0.3,0.7l-0.3-0.1l14.9-8.9l4.5-2.7l1.2-0.7L98.1,472.3z"/>
<path class="st24" d="M96.8,461.8c-0.3,0.2-0.6,0.4-1,0.6c-0.6,0.4-1.6,0.9-2.7,1.6c-3,1.8-5.7,4-8.3,6.4l-0.6,0.6l0.2-0.8
	c0.2-0.8,0.4-1.7,0.5-2.5c0.6-4,0.4-8.2-0.6-12.1c-0.3-1.2-0.7-2.4-1.2-3.5c-0.2-0.4-0.4-0.8-0.5-1.3c0.3,0.4,0.5,0.8,0.6,1.2
	c0.5,1.1,1,2.3,1.4,3.5c1.2,4,1.4,8.2,0.8,12.3c-0.1,0.9-0.3,1.8-0.5,2.6l-0.4-0.2c2.5-2.5,5.4-4.6,8.4-6.4c1.1-0.7,2.1-1.1,2.7-1.5
	C96.1,462,96.5,461.9,96.8,461.8z"/>
<path class="st24" d="M44.9,563.7c0,0.4-0.1,0.8-0.2,1.2c-0.2,0.7-0.4,1.8-0.6,3.2c-0.7,3.6-1.1,7.2-1.2,10.8v0.2h-0.2l-1,0.1
	c-4.5,0.3-8.6,0.5-11.6,0.6l-3.5,0.1c-0.4,0-0.9,0-1.3,0c0.4-0.1,0.9-0.2,1.3-0.2l3.5-0.3c2.9-0.2,7-0.5,11.6-0.8l1-0.1l-0.2,0.2
	c0.2-3.6,0.6-7.2,1.4-10.8c0.3-1.3,0.6-2.4,0.8-3.2C44.6,564.5,44.7,564.1,44.9,563.7z"/>
<path class="st24" d="M35.9,550.9c0,0.4,0,0.8-0.1,1.2c-0.1,0.8-0.2,1.9-0.4,3.2c-0.3,2.7-0.8,6.5-1.4,10.8v0.2h-0.3l-1.5,0.1
	c-4.6,0.3-8.8,0.8-11.8,1.2L17,568c-0.4,0.1-0.9,0.1-1.4,0.1c0.4-0.1,0.8-0.2,1.3-0.3c0.8-0.2,2.1-0.4,3.6-0.6c3-0.5,7.2-1,11.8-1.3
	l1.5-0.1l-0.2,0.2c0.6-4.3,1.1-8.1,1.6-10.8c0.2-1.3,0.4-2.4,0.5-3.2C35.7,551.6,35.8,551.2,35.9,550.9z"/>
<path class="st24" d="M25.4,545.4c0.1,0-0.2,1.3-0.5,3.3c-0.4,2.7-0.7,5.4-0.7,8.1v0.3h-0.3l-0.8-0.2c-2.9-0.3-5.7-0.5-8.6-0.5h-2.6
	c-0.3,0-0.6,0-1,0c0.3-0.1,0.6-0.2,1-0.2c0.6-0.1,1.5-0.1,2.6-0.2c2.9-0.1,5.8,0,8.7,0.4l0.8,0.1l-0.3,0.2c0.1-2.7,0.4-5.4,0.9-8.1
	c0.2-1,0.4-1.8,0.6-2.4C25.1,545.9,25.3,545.6,25.4,545.4z"/>
<path class="st24" d="M85.4,558.2c-0.6,1.6-1.3,3.1-2,4.6c-0.6,1.6-1.4,3.1-2.2,4.5C82.1,564.1,83.5,561,85.4,558.2L85.4,558.2z"/>
<path class="st24" d="M91.1,564.2c-1.7,0.3-3.5,0.6-5.2,1.1c-1.7,0.6-3.3,1.3-4.9,2.1c1.4-1.2,3-2,4.7-2.5
	C87.5,564.2,89.3,564,91.1,564.2z"/>
</svg>
